<?xml version="1.0" encoding="utf-8" standalone="no"?>
<!DOCTYPE svg PUBLIC "-//W3C//DTD SVG 1.1//EN"
  "http://www.w3.org/Graphics/SVG/1.1/DTD/svg11.dtd">
<svg xmlns:xlink="http://www.w3.org/1999/xlink" width="642.194824pt" height="327.76866pt" viewBox="0 0 642.194824 327.76866" xmlns="http://www.w3.org/2000/svg" version="1.1">
 <metadata>
  <rdf:RDF xmlns:dc="http://purl.org/dc/elements/1.1/" xmlns:cc="http://creativecommons.org/ns#" xmlns:rdf="http://www.w3.org/1999/02/22-rdf-syntax-ns#">
   <cc:Work>
    <dc:type rdf:resource="http://purl.org/dc/dcmitype/StillImage"/>
    <dc:date>2026-06-18T21:18:05.281857</dc:date>
    <dc:format>image/svg+xml</dc:format>
    <dc:creator>
     <cc:Agent>
      <dc:title>Matplotlib v3.11.0, https://matplotlib.org/</dc:title>
     </cc:Agent>
    </dc:creator>
   </cc:Work>
  </rdf:RDF>
 </metadata>
 <defs>
  <style type="text/css">*{stroke-linejoin: round; stroke-linecap: butt}</style>
 </defs>
 <g id="figure_1">
  <g id="patch_1">
   <path d="M 0 327.76866 
L 642.194824 327.76866 
L 642.194824 0 
L 0 0 
z
" style="fill: #ffffff"/>
  </g>
  <g id="axes_1">
   <g id="patch_2">
    <path d="M 49.930488 288.921961 
L 580.030488 288.921961 
L 580.030488 22.809961 
L 49.930488 22.809961 
z
" style="fill: #ffffff"/>
   </g>
   <g id="matplotlib.axis_1">
    <g id="xtick_1">
     <g id="line2d_1">
      <path d="M 127.571397 288.921961 
L 127.571397 22.809961 
" clip-path="url(#pa9ffb18dc3)" style="fill: none; stroke: #cccccc; stroke-width: 0.8; stroke-linecap: round"/>
     </g>
     <g id="text_1">
      <!-- 2016 -->
      <g style="fill: #262626" transform="translate(115.337335 303.930262) scale(0.11 -0.11)">
       <defs>
        <path id="ArialMT-15" d="M 3222 541 
L 3222 0 
L 194 0 
Q 188 203 259 391 
Q 375 700 629 1000 
Q 884 1300 1366 1694 
Q 2113 2306 2375 2664 
Q 2638 3022 2638 3341 
Q 2638 3675 2398 3904 
Q 2159 4134 1775 4134 
Q 1369 4134 1125 3890 
Q 881 3647 878 3216 
L 300 3275 
Q 359 3922 746 4261 
Q 1134 4600 1788 4600 
Q 2447 4600 2831 4234 
Q 3216 3869 3216 3328 
Q 3216 3053 3103 2787 
Q 2991 2522 2730 2228 
Q 2469 1934 1863 1422 
Q 1356 997 1212 845 
Q 1069 694 975 541 
L 3222 541 
z
" transform="scale(0.015625)"/>
        <path id="ArialMT-13" d="M 266 2259 
Q 266 3072 433 3567 
Q 600 4063 929 4331 
Q 1259 4600 1759 4600 
Q 2128 4600 2406 4451 
Q 2684 4303 2865 4023 
Q 3047 3744 3150 3342 
Q 3253 2941 3253 2259 
Q 3253 1453 3087 958 
Q 2922 463 2592 192 
Q 2263 -78 1759 -78 
Q 1097 -78 719 397 
Q 266 969 266 2259 
z
M 844 2259 
Q 844 1131 1108 757 
Q 1372 384 1759 384 
Q 2147 384 2411 759 
Q 2675 1134 2675 2259 
Q 2675 3391 2411 3762 
Q 2147 4134 1753 4134 
Q 1366 4134 1134 3806 
Q 844 3388 844 2259 
z
" transform="scale(0.015625)"/>
        <path id="ArialMT-14" d="M 2384 0 
L 1822 0 
L 1822 3584 
Q 1619 3391 1289 3197 
Q 959 3003 697 2906 
L 697 3450 
Q 1169 3672 1522 3987 
Q 1875 4303 2022 4600 
L 2384 4600 
L 2384 0 
z
" transform="scale(0.015625)"/>
        <path id="ArialMT-19" d="M 3184 3459 
L 2625 3416 
Q 2550 3747 2413 3897 
Q 2184 4138 1850 4138 
Q 1581 4138 1378 3988 
Q 1113 3794 959 3422 
Q 806 3050 800 2363 
Q 1003 2672 1297 2822 
Q 1591 2972 1913 2972 
Q 2475 2972 2870 2558 
Q 3266 2144 3266 1488 
Q 3266 1056 3080 686 
Q 2894 316 2569 119 
Q 2244 -78 1831 -78 
Q 1128 -78 684 439 
Q 241 956 241 2144 
Q 241 3472 731 4075 
Q 1159 4600 1884 4600 
Q 2425 4600 2770 4297 
Q 3116 3994 3184 3459 
z
M 888 1484 
Q 888 1194 1011 928 
Q 1134 663 1356 523 
Q 1578 384 1822 384 
Q 2178 384 2434 671 
Q 2691 959 2691 1453 
Q 2691 1928 2437 2201 
Q 2184 2475 1800 2475 
Q 1419 2475 1153 2201 
Q 888 1928 888 1484 
z
" transform="scale(0.015625)"/>
       </defs>
       <use xlink:href="#ArialMT-15"/>
       <use xlink:href="#ArialMT-13" transform="translate(55.609375 0)"/>
       <use xlink:href="#ArialMT-14" transform="translate(111.21875 0)"/>
       <use xlink:href="#ArialMT-19" transform="translate(166.828125 0)"/>
      </g>
     </g>
    </g>
    <g id="xtick_2">
     <g id="line2d_2">
      <path d="M 234.662306 288.921961 
L 234.662306 22.809961 
" clip-path="url(#pa9ffb18dc3)" style="fill: none; stroke: #cccccc; stroke-width: 0.8; stroke-linecap: round"/>
     </g>
     <g id="text_2">
      <!-- 2018 -->
      <g style="fill: #262626" transform="translate(222.428244 303.930262) scale(0.11 -0.11)">
       <defs>
        <path id="ArialMT-1b" d="M 1131 2484 
Q 781 2613 612 2850 
Q 444 3088 444 3419 
Q 444 3919 803 4259 
Q 1163 4600 1759 4600 
Q 2359 4600 2725 4251 
Q 3091 3903 3091 3403 
Q 3091 3084 2923 2848 
Q 2756 2613 2416 2484 
Q 2838 2347 3058 2040 
Q 3278 1734 3278 1309 
Q 3278 722 2862 322 
Q 2447 -78 1769 -78 
Q 1091 -78 675 323 
Q 259 725 259 1325 
Q 259 1772 486 2073 
Q 713 2375 1131 2484 
z
M 1019 3438 
Q 1019 3113 1228 2906 
Q 1438 2700 1772 2700 
Q 2097 2700 2305 2904 
Q 2513 3109 2513 3406 
Q 2513 3716 2298 3927 
Q 2084 4138 1766 4138 
Q 1444 4138 1231 3931 
Q 1019 3725 1019 3438 
z
M 838 1322 
Q 838 1081 952 856 
Q 1066 631 1291 507 
Q 1516 384 1775 384 
Q 2178 384 2440 643 
Q 2703 903 2703 1303 
Q 2703 1709 2433 1975 
Q 2163 2241 1756 2241 
Q 1359 2241 1098 1978 
Q 838 1716 838 1322 
z
" transform="scale(0.015625)"/>
       </defs>
       <use xlink:href="#ArialMT-15"/>
       <use xlink:href="#ArialMT-13" transform="translate(55.609375 0)"/>
       <use xlink:href="#ArialMT-14" transform="translate(111.21875 0)"/>
       <use xlink:href="#ArialMT-1b" transform="translate(166.828125 0)"/>
      </g>
     </g>
    </g>
    <g id="xtick_3">
     <g id="line2d_3">
      <path d="M 341.753216 288.921961 
L 341.753216 22.809961 
" clip-path="url(#pa9ffb18dc3)" style="fill: none; stroke: #cccccc; stroke-width: 0.8; stroke-linecap: round"/>
     </g>
     <g id="text_3">
      <!-- 2020 -->
      <g style="fill: #262626" transform="translate(329.519153 303.930262) scale(0.11 -0.11)">
       <use xlink:href="#ArialMT-15"/>
       <use xlink:href="#ArialMT-13" transform="translate(55.609375 0)"/>
       <use xlink:href="#ArialMT-15" transform="translate(111.21875 0)"/>
       <use xlink:href="#ArialMT-13" transform="translate(166.828125 0)"/>
      </g>
     </g>
    </g>
    <g id="xtick_4">
     <g id="line2d_4">
      <path d="M 448.844125 288.921961 
L 448.844125 22.809961 
" clip-path="url(#pa9ffb18dc3)" style="fill: none; stroke: #cccccc; stroke-width: 0.8; stroke-linecap: round"/>
     </g>
     <g id="text_4">
      <!-- 2022 -->
      <g style="fill: #262626" transform="translate(436.610062 303.930262) scale(0.11 -0.11)">
       <use xlink:href="#ArialMT-15"/>
       <use xlink:href="#ArialMT-13" transform="translate(55.609375 0)"/>
       <use xlink:href="#ArialMT-15" transform="translate(111.21875 0)"/>
       <use xlink:href="#ArialMT-15" transform="translate(166.828125 0)"/>
      </g>
     </g>
    </g>
    <g id="xtick_5">
     <g id="line2d_5">
      <path d="M 555.935034 288.921961 
L 555.935034 22.809961 
" clip-path="url(#pa9ffb18dc3)" style="fill: none; stroke: #cccccc; stroke-width: 0.8; stroke-linecap: round"/>
     </g>
     <g id="text_5">
      <!-- 2024 -->
      <g style="fill: #262626" transform="translate(543.700971 303.930262) scale(0.11 -0.11)">
       <defs>
        <path id="ArialMT-17" d="M 2069 0 
L 2069 1097 
L 81 1097 
L 81 1613 
L 2172 4581 
L 2631 4581 
L 2631 1613 
L 3250 1613 
L 3250 1097 
L 2631 1097 
L 2631 0 
L 2069 0 
z
M 2069 1613 
L 2069 3678 
L 634 1613 
L 2069 1613 
z
" transform="scale(0.015625)"/>
       </defs>
       <use xlink:href="#ArialMT-15"/>
       <use xlink:href="#ArialMT-13" transform="translate(55.609375 0)"/>
       <use xlink:href="#ArialMT-15" transform="translate(111.21875 0)"/>
       <use xlink:href="#ArialMT-17" transform="translate(166.828125 0)"/>
      </g>
     </g>
    </g>
    <g id="text_6">
     <!-- year -->
     <g style="fill: #262626" transform="translate(304.282129 318.253504) scale(0.11 -0.11)">
      <defs>
       <path id="ArialMT-5c" d="M 397 -1278 
L 334 -750 
Q 519 -800 656 -800 
Q 844 -800 956 -737 
Q 1069 -675 1141 -563 
Q 1194 -478 1313 -144 
Q 1328 -97 1363 -6 
L 103 3319 
L 709 3319 
L 1400 1397 
Q 1534 1031 1641 628 
Q 1738 1016 1872 1384 
L 2581 3319 
L 3144 3319 
L 1881 -56 
Q 1678 -603 1566 -809 
Q 1416 -1088 1222 -1217 
Q 1028 -1347 759 -1347 
Q 597 -1347 397 -1278 
z
" transform="scale(0.015625)"/>
       <path id="ArialMT-48" d="M 2694 1069 
L 3275 997 
Q 3138 488 2766 206 
Q 2394 -75 1816 -75 
Q 1088 -75 661 373 
Q 234 822 234 1631 
Q 234 2469 665 2931 
Q 1097 3394 1784 3394 
Q 2450 3394 2872 2941 
Q 3294 2488 3294 1666 
Q 3294 1616 3291 1516 
L 816 1516 
Q 847 969 1125 678 
Q 1403 388 1819 388 
Q 2128 388 2347 550 
Q 2566 713 2694 1069 
z
M 847 1978 
L 2700 1978 
Q 2663 2397 2488 2606 
Q 2219 2931 1791 2931 
Q 1403 2931 1139 2672 
Q 875 2413 847 1978 
z
" transform="scale(0.015625)"/>
       <path id="ArialMT-44" d="M 2588 409 
Q 2275 144 1986 34 
Q 1697 -75 1366 -75 
Q 819 -75 525 192 
Q 231 459 231 875 
Q 231 1119 342 1320 
Q 453 1522 633 1644 
Q 813 1766 1038 1828 
Q 1203 1872 1538 1913 
Q 2219 1994 2541 2106 
Q 2544 2222 2544 2253 
Q 2544 2597 2384 2738 
Q 2169 2928 1744 2928 
Q 1347 2928 1158 2789 
Q 969 2650 878 2297 
L 328 2372 
Q 403 2725 575 2942 
Q 747 3159 1072 3276 
Q 1397 3394 1825 3394 
Q 2250 3394 2515 3294 
Q 2781 3194 2906 3042 
Q 3031 2891 3081 2659 
Q 3109 2516 3109 2141 
L 3109 1391 
Q 3109 606 3145 398 
Q 3181 191 3288 0 
L 2700 0 
Q 2613 175 2588 409 
z
M 2541 1666 
Q 2234 1541 1622 1453 
Q 1275 1403 1131 1340 
Q 988 1278 909 1158 
Q 831 1038 831 891 
Q 831 666 1001 516 
Q 1172 366 1500 366 
Q 1825 366 2078 508 
Q 2331 650 2450 897 
Q 2541 1088 2541 1459 
L 2541 1666 
z
" transform="scale(0.015625)"/>
       <path id="ArialMT-55" d="M 416 0 
L 416 3319 
L 922 3319 
L 922 2816 
Q 1116 3169 1280 3281 
Q 1444 3394 1641 3394 
Q 1925 3394 2219 3213 
L 2025 2691 
Q 1819 2813 1613 2813 
Q 1428 2813 1281 2702 
Q 1134 2591 1072 2394 
Q 978 2094 978 1738 
L 978 0 
L 416 0 
z
" transform="scale(0.015625)"/>
      </defs>
      <use xlink:href="#ArialMT-5c"/>
      <use xlink:href="#ArialMT-48" transform="translate(50 0)"/>
      <use xlink:href="#ArialMT-44" transform="translate(105.609375 0)"/>
      <use xlink:href="#ArialMT-55" transform="translate(161.21875 0)"/>
     </g>
    </g>
   </g>
   <g id="matplotlib.axis_2">
    <g id="ytick_1">
     <g id="line2d_6">
      <path d="M 49.930488 256.585642 
L 580.030488 256.585642 
" clip-path="url(#pa9ffb18dc3)" style="fill: none; stroke: #cccccc; stroke-width: 0.8; stroke-linecap: round"/>
     </g>
     <g id="line2d_7">
      <defs>
       <path id="m5bcc31ebeb" d="M 0 0 
L -3.5 0 
" style="stroke: #262626; stroke-width: 0.8"/>
      </defs>
      <g>
       <use xlink:href="#m5bcc31ebeb" x="49.930488" y="256.585642" style="fill: #262626; stroke: #262626; stroke-width: 0.8"/>
      </g>
     </g>
     <g id="text_7">
      <!-- 1.05 -->
      <g style="fill: #2c7fb8" transform="translate(21.523457 260.589793) scale(0.11 -0.11)">
       <defs>
        <path id="ArialMT-11" d="M 581 0 
L 581 641 
L 1222 641 
L 1222 0 
L 581 0 
z
" transform="scale(0.015625)"/>
        <path id="ArialMT-18" d="M 266 1200 
L 856 1250 
Q 922 819 1161 601 
Q 1400 384 1738 384 
Q 2144 384 2425 690 
Q 2706 997 2706 1503 
Q 2706 1984 2436 2262 
Q 2166 2541 1728 2541 
Q 1456 2541 1237 2417 
Q 1019 2294 894 2097 
L 366 2166 
L 809 4519 
L 3088 4519 
L 3088 3981 
L 1259 3981 
L 1013 2750 
Q 1425 3038 1878 3038 
Q 2478 3038 2890 2622 
Q 3303 2206 3303 1553 
Q 3303 931 2941 478 
Q 2500 -78 1738 -78 
Q 1113 -78 717 272 
Q 322 622 266 1200 
z
" transform="scale(0.015625)"/>
       </defs>
       <use xlink:href="#ArialMT-14"/>
       <use xlink:href="#ArialMT-11" transform="translate(55.609375 0)"/>
       <use xlink:href="#ArialMT-13" transform="translate(83.390625 0)"/>
       <use xlink:href="#ArialMT-18" transform="translate(139 0)"/>
      </g>
     </g>
    </g>
    <g id="ytick_2">
     <g id="line2d_8">
      <path d="M 49.930488 208.394407 
L 580.030488 208.394407 
" clip-path="url(#pa9ffb18dc3)" style="fill: none; stroke: #cccccc; stroke-width: 0.8; stroke-linecap: round"/>
     </g>
     <g id="line2d_9">
      <g>
       <use xlink:href="#m5bcc31ebeb" x="49.930488" y="208.394407" style="fill: #262626; stroke: #262626; stroke-width: 0.8"/>
      </g>
     </g>
     <g id="text_8">
      <!-- 1.10 -->
      <g style="fill: #2c7fb8" transform="translate(21.523457 212.398558) scale(0.11 -0.11)">
       <use xlink:href="#ArialMT-14"/>
       <use xlink:href="#ArialMT-11" transform="translate(55.609375 0)"/>
       <use xlink:href="#ArialMT-14" transform="translate(83.390625 0)"/>
       <use xlink:href="#ArialMT-13" transform="translate(139 0)"/>
      </g>
     </g>
    </g>
    <g id="ytick_3">
     <g id="line2d_10">
      <path d="M 49.930488 160.203172 
L 580.030488 160.203172 
" clip-path="url(#pa9ffb18dc3)" style="fill: none; stroke: #cccccc; stroke-width: 0.8; stroke-linecap: round"/>
     </g>
     <g id="line2d_11">
      <g>
       <use xlink:href="#m5bcc31ebeb" x="49.930488" y="160.203172" style="fill: #262626; stroke: #262626; stroke-width: 0.8"/>
      </g>
     </g>
     <g id="text_9">
      <!-- 1.15 -->
      <g style="fill: #2c7fb8" transform="translate(21.523457 164.207322) scale(0.11 -0.11)">
       <use xlink:href="#ArialMT-14"/>
       <use xlink:href="#ArialMT-11" transform="translate(55.609375 0)"/>
       <use xlink:href="#ArialMT-14" transform="translate(83.390625 0)"/>
       <use xlink:href="#ArialMT-18" transform="translate(139 0)"/>
      </g>
     </g>
    </g>
    <g id="ytick_4">
     <g id="line2d_12">
      <path d="M 49.930488 112.011937 
L 580.030488 112.011937 
" clip-path="url(#pa9ffb18dc3)" style="fill: none; stroke: #cccccc; stroke-width: 0.8; stroke-linecap: round"/>
     </g>
     <g id="line2d_13">
      <g>
       <use xlink:href="#m5bcc31ebeb" x="49.930488" y="112.011937" style="fill: #262626; stroke: #262626; stroke-width: 0.8"/>
      </g>
     </g>
     <g id="text_10">
      <!-- 1.20 -->
      <g style="fill: #2c7fb8" transform="translate(21.523457 116.016087) scale(0.11 -0.11)">
       <use xlink:href="#ArialMT-14"/>
       <use xlink:href="#ArialMT-11" transform="translate(55.609375 0)"/>
       <use xlink:href="#ArialMT-15" transform="translate(83.390625 0)"/>
       <use xlink:href="#ArialMT-13" transform="translate(139 0)"/>
      </g>
     </g>
    </g>
    <g id="ytick_5">
     <g id="line2d_14">
      <path d="M 49.930488 63.820702 
L 580.030488 63.820702 
" clip-path="url(#pa9ffb18dc3)" style="fill: none; stroke: #cccccc; stroke-width: 0.8; stroke-linecap: round"/>
     </g>
     <g id="line2d_15">
      <g>
       <use xlink:href="#m5bcc31ebeb" x="49.930488" y="63.820702" style="fill: #262626; stroke: #262626; stroke-width: 0.8"/>
      </g>
     </g>
     <g id="text_11">
      <!-- 1.25 -->
      <g style="fill: #2c7fb8" transform="translate(21.523457 67.824852) scale(0.11 -0.11)">
       <use xlink:href="#ArialMT-14"/>
       <use xlink:href="#ArialMT-11" transform="translate(55.609375 0)"/>
       <use xlink:href="#ArialMT-15" transform="translate(83.390625 0)"/>
       <use xlink:href="#ArialMT-18" transform="translate(139 0)"/>
      </g>
     </g>
    </g>
    <g id="text_12">
     <!-- doubly-constrained decay beta -->
     <g style="fill: #2c7fb8" transform="translate(15.208301 230.770805) rotate(-90) scale(0.11 -0.11)">
      <defs>
       <path id="ArialMT-47" d="M 2575 0 
L 2575 419 
Q 2259 -75 1647 -75 
Q 1250 -75 917 144 
Q 584 363 401 755 
Q 219 1147 219 1656 
Q 219 2153 384 2558 
Q 550 2963 881 3178 
Q 1213 3394 1622 3394 
Q 1922 3394 2156 3267 
Q 2391 3141 2538 2938 
L 2538 4581 
L 3097 4581 
L 3097 0 
L 2575 0 
z
M 797 1656 
Q 797 1019 1065 703 
Q 1334 388 1700 388 
Q 2069 388 2326 689 
Q 2584 991 2584 1609 
Q 2584 2291 2321 2609 
Q 2059 2928 1675 2928 
Q 1300 2928 1048 2622 
Q 797 2316 797 1656 
z
" transform="scale(0.015625)"/>
       <path id="ArialMT-52" d="M 213 1659 
Q 213 2581 725 3025 
Q 1153 3394 1769 3394 
Q 2453 3394 2887 2945 
Q 3322 2497 3322 1706 
Q 3322 1066 3130 698 
Q 2938 331 2570 128 
Q 2203 -75 1769 -75 
Q 1072 -75 642 372 
Q 213 819 213 1659 
z
M 791 1659 
Q 791 1022 1069 705 
Q 1347 388 1769 388 
Q 2188 388 2466 706 
Q 2744 1025 2744 1678 
Q 2744 2294 2464 2611 
Q 2184 2928 1769 2928 
Q 1347 2928 1069 2612 
Q 791 2297 791 1659 
z
" transform="scale(0.015625)"/>
       <path id="ArialMT-58" d="M 2597 0 
L 2597 488 
Q 2209 -75 1544 -75 
Q 1250 -75 995 37 
Q 741 150 617 320 
Q 494 491 444 738 
Q 409 903 409 1263 
L 409 3319 
L 972 3319 
L 972 1478 
Q 972 1038 1006 884 
Q 1059 663 1231 536 
Q 1403 409 1656 409 
Q 1909 409 2131 539 
Q 2353 669 2445 892 
Q 2538 1116 2538 1541 
L 2538 3319 
L 3100 3319 
L 3100 0 
L 2597 0 
z
" transform="scale(0.015625)"/>
       <path id="ArialMT-45" d="M 941 0 
L 419 0 
L 419 4581 
L 981 4581 
L 981 2947 
Q 1338 3394 1891 3394 
Q 2197 3394 2470 3270 
Q 2744 3147 2920 2923 
Q 3097 2700 3197 2384 
Q 3297 2069 3297 1709 
Q 3297 856 2875 390 
Q 2453 -75 1863 -75 
Q 1275 -75 941 416 
L 941 0 
z
M 934 1684 
Q 934 1088 1097 822 
Q 1363 388 1816 388 
Q 2184 388 2453 708 
Q 2722 1028 2722 1663 
Q 2722 2313 2464 2622 
Q 2206 2931 1841 2931 
Q 1472 2931 1203 2611 
Q 934 2291 934 1684 
z
" transform="scale(0.015625)"/>
       <path id="ArialMT-4f" d="M 409 0 
L 409 4581 
L 972 4581 
L 972 0 
L 409 0 
z
" transform="scale(0.015625)"/>
       <path id="ArialMT-10" d="M 203 1375 
L 203 1941 
L 1931 1941 
L 1931 1375 
L 203 1375 
z
" transform="scale(0.015625)"/>
       <path id="ArialMT-46" d="M 2588 1216 
L 3141 1144 
Q 3050 572 2676 248 
Q 2303 -75 1759 -75 
Q 1078 -75 664 370 
Q 250 816 250 1647 
Q 250 2184 428 2587 
Q 606 2991 970 3192 
Q 1334 3394 1763 3394 
Q 2303 3394 2647 3120 
Q 2991 2847 3088 2344 
L 2541 2259 
Q 2463 2594 2264 2762 
Q 2066 2931 1784 2931 
Q 1359 2931 1093 2626 
Q 828 2322 828 1663 
Q 828 994 1084 691 
Q 1341 388 1753 388 
Q 2084 388 2306 591 
Q 2528 794 2588 1216 
z
" transform="scale(0.015625)"/>
       <path id="ArialMT-51" d="M 422 0 
L 422 3319 
L 928 3319 
L 928 2847 
Q 1294 3394 1984 3394 
Q 2284 3394 2536 3286 
Q 2788 3178 2913 3003 
Q 3038 2828 3088 2588 
Q 3119 2431 3119 2041 
L 3119 0 
L 2556 0 
L 2556 2019 
Q 2556 2363 2490 2533 
Q 2425 2703 2258 2804 
Q 2091 2906 1866 2906 
Q 1506 2906 1245 2678 
Q 984 2450 984 1813 
L 984 0 
L 422 0 
z
" transform="scale(0.015625)"/>
       <path id="ArialMT-56" d="M 197 991 
L 753 1078 
Q 800 744 1014 566 
Q 1228 388 1613 388 
Q 2000 388 2187 545 
Q 2375 703 2375 916 
Q 2375 1106 2209 1216 
Q 2094 1291 1634 1406 
Q 1016 1563 777 1677 
Q 538 1791 414 1992 
Q 291 2194 291 2438 
Q 291 2659 392 2848 
Q 494 3038 669 3163 
Q 800 3259 1026 3326 
Q 1253 3394 1513 3394 
Q 1903 3394 2198 3281 
Q 2494 3169 2634 2976 
Q 2775 2784 2828 2463 
L 2278 2388 
Q 2241 2644 2061 2787 
Q 1881 2931 1553 2931 
Q 1166 2931 1000 2803 
Q 834 2675 834 2503 
Q 834 2394 903 2306 
Q 972 2216 1119 2156 
Q 1203 2125 1616 2013 
Q 2213 1853 2448 1751 
Q 2684 1650 2818 1456 
Q 2953 1263 2953 975 
Q 2953 694 2789 445 
Q 2625 197 2315 61 
Q 2006 -75 1616 -75 
Q 969 -75 630 194 
Q 291 463 197 991 
z
" transform="scale(0.015625)"/>
       <path id="ArialMT-57" d="M 1650 503 
L 1731 6 
Q 1494 -44 1306 -44 
Q 1000 -44 831 53 
Q 663 150 594 308 
Q 525 466 525 972 
L 525 2881 
L 113 2881 
L 113 3319 
L 525 3319 
L 525 4141 
L 1084 4478 
L 1084 3319 
L 1650 3319 
L 1650 2881 
L 1084 2881 
L 1084 941 
Q 1084 700 1114 631 
Q 1144 563 1211 522 
Q 1278 481 1403 481 
Q 1497 481 1650 503 
z
" transform="scale(0.015625)"/>
       <path id="ArialMT-4c" d="M 425 3934 
L 425 4581 
L 988 4581 
L 988 3934 
L 425 3934 
z
M 425 0 
L 425 3319 
L 988 3319 
L 988 0 
L 425 0 
z
" transform="scale(0.015625)"/>
       <path id="ArialMT-3" transform="scale(0.015625)"/>
      </defs>
      <use xlink:href="#ArialMT-47"/>
      <use xlink:href="#ArialMT-52" transform="translate(55.609375 0)"/>
      <use xlink:href="#ArialMT-58" transform="translate(111.21875 0)"/>
      <use xlink:href="#ArialMT-45" transform="translate(166.828125 0)"/>
      <use xlink:href="#ArialMT-4f" transform="translate(222.4375 0)"/>
      <use xlink:href="#ArialMT-5c" transform="translate(244.65625 0)"/>
      <use xlink:href="#ArialMT-10" transform="translate(294.65625 0)"/>
      <use xlink:href="#ArialMT-46" transform="translate(327.953125 0)"/>
      <use xlink:href="#ArialMT-52" transform="translate(377.953125 0)"/>
      <use xlink:href="#ArialMT-51" transform="translate(433.5625 0)"/>
      <use xlink:href="#ArialMT-56" transform="translate(489.171875 0)"/>
      <use xlink:href="#ArialMT-57" transform="translate(539.171875 0)"/>
      <use xlink:href="#ArialMT-55" transform="translate(566.953125 0)"/>
      <use xlink:href="#ArialMT-44" transform="translate(600.25 0)"/>
      <use xlink:href="#ArialMT-4c" transform="translate(655.859375 0)"/>
      <use xlink:href="#ArialMT-51" transform="translate(678.078125 0)"/>
      <use xlink:href="#ArialMT-48" transform="translate(733.6875 0)"/>
      <use xlink:href="#ArialMT-47" transform="translate(789.296875 0)"/>
      <use xlink:href="#ArialMT-3" transform="translate(844.90625 0)"/>
      <use xlink:href="#ArialMT-47" transform="translate(872.6875 0)"/>
      <use xlink:href="#ArialMT-48" transform="translate(928.296875 0)"/>
      <use xlink:href="#ArialMT-46" transform="translate(983.90625 0)"/>
      <use xlink:href="#ArialMT-44" transform="translate(1033.90625 0)"/>
      <use xlink:href="#ArialMT-5c" transform="translate(1089.515625 0)"/>
      <use xlink:href="#ArialMT-3" transform="translate(1139.515625 0)"/>
      <use xlink:href="#ArialMT-45" transform="translate(1167.296875 0)"/>
      <use xlink:href="#ArialMT-48" transform="translate(1222.90625 0)"/>
      <use xlink:href="#ArialMT-57" transform="translate(1278.515625 0)"/>
      <use xlink:href="#ArialMT-44" transform="translate(1306.296875 0)"/>
     </g>
    </g>
   </g>
   <g id="patch_3">
    <path d="M 320.335034 288.921961 
L 363.171397 288.921961 
L 363.171397 22.809961 
L 320.335034 22.809961 
z
" clip-path="url(#pa9ffb18dc3)" style="fill: #fde0dd; opacity: 0.7; stroke: #fde0dd; stroke-linejoin: miter"/>
   </g>
   <g id="line2d_16">
    <path d="M 74.025943 164.058471 
L 127.571397 135.14373 
L 181.116852 105.265164 
L 234.662306 105.265164 
L 288.207761 89.843969 
L 341.753216 34.905961 
L 395.29867 185.262614 
L 448.844125 276.825961 
L 502.389579 222.851778 
L 555.935034 192.973212 
" clip-path="url(#pa9ffb18dc3)" style="fill: none; stroke: #2c7fb8; stroke-width: 1.5; stroke-linecap: round"/>
    <defs>
     <path id="m10fec1d435" d="M 0 3 
C 0.795609 3 1.55874 2.683901 2.12132 2.12132 
C 2.683901 1.55874 3 0.795609 3 0 
C 3 -0.795609 2.683901 -1.55874 2.12132 -2.12132 
C 1.55874 -2.683901 0.795609 -3 0 -3 
C -0.795609 -3 -1.55874 -2.683901 -2.12132 -2.12132 
C -2.683901 -1.55874 -3 -0.795609 -3 0 
C -3 0.795609 -2.683901 1.55874 -2.12132 2.12132 
C -1.55874 2.683901 -0.795609 3 0 3 
z
" style="stroke: #2c7fb8"/>
    </defs>
    <g clip-path="url(#pa9ffb18dc3)">
     <use xlink:href="#m10fec1d435" x="74.025943" y="164.058471" style="fill: #2c7fb8; stroke: #2c7fb8"/>
     <use xlink:href="#m10fec1d435" x="127.571397" y="135.14373" style="fill: #2c7fb8; stroke: #2c7fb8"/>
     <use xlink:href="#m10fec1d435" x="181.116852" y="105.265164" style="fill: #2c7fb8; stroke: #2c7fb8"/>
     <use xlink:href="#m10fec1d435" x="234.662306" y="105.265164" style="fill: #2c7fb8; stroke: #2c7fb8"/>
     <use xlink:href="#m10fec1d435" x="288.207761" y="89.843969" style="fill: #2c7fb8; stroke: #2c7fb8"/>
     <use xlink:href="#m10fec1d435" x="341.753216" y="34.905961" style="fill: #2c7fb8; stroke: #2c7fb8"/>
     <use xlink:href="#m10fec1d435" x="395.29867" y="185.262614" style="fill: #2c7fb8; stroke: #2c7fb8"/>
     <use xlink:href="#m10fec1d435" x="448.844125" y="276.825961" style="fill: #2c7fb8; stroke: #2c7fb8"/>
     <use xlink:href="#m10fec1d435" x="502.389579" y="222.851778" style="fill: #2c7fb8; stroke: #2c7fb8"/>
     <use xlink:href="#m10fec1d435" x="555.935034" y="192.973212" style="fill: #2c7fb8; stroke: #2c7fb8"/>
    </g>
   </g>
   <g id="patch_4">
    <path d="M 49.930488 288.921961 
L 49.930488 22.809961 
" style="fill: none; stroke: #cccccc; stroke-width: 0.8; stroke-linejoin: miter; stroke-linecap: square"/>
   </g>
   <g id="patch_5">
    <path d="M 580.030488 288.921961 
L 580.030488 22.809961 
" style="fill: none; stroke: #cccccc; stroke-width: 0.8; stroke-linejoin: miter; stroke-linecap: square"/>
   </g>
   <g id="patch_6">
    <path d="M 49.930488 288.921961 
L 580.030488 288.921961 
" style="fill: none; stroke: #cccccc; stroke-width: 0.8; stroke-linejoin: miter; stroke-linecap: square"/>
   </g>
   <g id="patch_7">
    <path d="M 49.930488 22.809961 
L 580.030488 22.809961 
" style="fill: none; stroke: #cccccc; stroke-width: 0.8; stroke-linejoin: miter; stroke-linecap: square"/>
   </g>
   <g id="text_13">
    <!-- Spatial-interaction law over time (gravity beta + CPC) -->
    <g style="fill: #262626" transform="translate(159.643301 16.809961) scale(0.132 -0.132)">
     <defs>
      <path id="ArialMT-36" d="M 288 1472 
L 859 1522 
Q 900 1178 1048 958 
Q 1197 738 1509 602 
Q 1822 466 2213 466 
Q 2559 466 2825 569 
Q 3091 672 3220 851 
Q 3350 1031 3350 1244 
Q 3350 1459 3225 1620 
Q 3100 1781 2813 1891 
Q 2628 1963 1997 2114 
Q 1366 2266 1113 2400 
Q 784 2572 623 2826 
Q 463 3081 463 3397 
Q 463 3744 659 4045 
Q 856 4347 1234 4503 
Q 1613 4659 2075 4659 
Q 2584 4659 2973 4495 
Q 3363 4331 3572 4012 
Q 3781 3694 3797 3291 
L 3216 3247 
Q 3169 3681 2898 3903 
Q 2628 4125 2100 4125 
Q 1550 4125 1298 3923 
Q 1047 3722 1047 3438 
Q 1047 3191 1225 3031 
Q 1400 2872 2139 2705 
Q 2878 2538 3153 2413 
Q 3553 2228 3743 1945 
Q 3934 1663 3934 1294 
Q 3934 928 3725 604 
Q 3516 281 3123 101 
Q 2731 -78 2241 -78 
Q 1619 -78 1198 103 
Q 778 284 539 648 
Q 300 1013 288 1472 
z
" transform="scale(0.015625)"/>
      <path id="ArialMT-53" d="M 422 -1272 
L 422 3319 
L 934 3319 
L 934 2888 
Q 1116 3141 1344 3267 
Q 1572 3394 1897 3394 
Q 2322 3394 2647 3175 
Q 2972 2956 3137 2557 
Q 3303 2159 3303 1684 
Q 3303 1175 3120 767 
Q 2938 359 2589 142 
Q 2241 -75 1856 -75 
Q 1575 -75 1351 44 
Q 1128 163 984 344 
L 984 -1272 
L 422 -1272 
z
M 931 1641 
Q 931 1000 1190 694 
Q 1450 388 1819 388 
Q 2194 388 2461 705 
Q 2728 1022 2728 1688 
Q 2728 2322 2467 2637 
Q 2206 2953 1844 2953 
Q 1484 2953 1207 2617 
Q 931 2281 931 1641 
z
" transform="scale(0.015625)"/>
      <path id="ArialMT-5a" d="M 1034 0 
L 19 3319 
L 600 3319 
L 1128 1403 
L 1325 691 
Q 1338 744 1497 1375 
L 2025 3319 
L 2603 3319 
L 3100 1394 
L 3266 759 
L 3456 1400 
L 4025 3319 
L 4572 3319 
L 3534 0 
L 2950 0 
L 2422 1988 
L 2294 2553 
L 1622 0 
L 1034 0 
z
" transform="scale(0.015625)"/>
      <path id="ArialMT-59" d="M 1344 0 
L 81 3319 
L 675 3319 
L 1388 1331 
Q 1503 1009 1600 663 
Q 1675 925 1809 1294 
L 2547 3319 
L 3125 3319 
L 1869 0 
L 1344 0 
z
" transform="scale(0.015625)"/>
      <path id="ArialMT-50" d="M 422 0 
L 422 3319 
L 925 3319 
L 925 2853 
Q 1081 3097 1340 3245 
Q 1600 3394 1931 3394 
Q 2300 3394 2536 3241 
Q 2772 3088 2869 2813 
Q 3263 3394 3894 3394 
Q 4388 3394 4653 3120 
Q 4919 2847 4919 2278 
L 4919 0 
L 4359 0 
L 4359 2091 
Q 4359 2428 4304 2576 
Q 4250 2725 4106 2815 
Q 3963 2906 3769 2906 
Q 3419 2906 3187 2673 
Q 2956 2441 2956 1928 
L 2956 0 
L 2394 0 
L 2394 2156 
Q 2394 2531 2256 2718 
Q 2119 2906 1806 2906 
Q 1569 2906 1367 2781 
Q 1166 2656 1075 2415 
Q 984 2175 984 1722 
L 984 0 
L 422 0 
z
" transform="scale(0.015625)"/>
      <path id="ArialMT-b" d="M 1497 -1347 
Q 1031 -759 709 28 
Q 388 816 388 1659 
Q 388 2403 628 3084 
Q 909 3875 1497 4659 
L 1900 4659 
Q 1522 4009 1400 3731 
Q 1209 3300 1100 2831 
Q 966 2247 966 1656 
Q 966 153 1900 -1347 
L 1497 -1347 
z
" transform="scale(0.015625)"/>
      <path id="ArialMT-4a" d="M 319 -275 
L 866 -356 
Q 900 -609 1056 -725 
Q 1266 -881 1628 -881 
Q 2019 -881 2231 -725 
Q 2444 -569 2519 -288 
Q 2563 -116 2559 434 
Q 2191 0 1641 0 
Q 956 0 581 494 
Q 206 988 206 1678 
Q 206 2153 378 2554 
Q 550 2956 876 3175 
Q 1203 3394 1644 3394 
Q 2231 3394 2613 2919 
L 2613 3319 
L 3131 3319 
L 3131 450 
Q 3131 -325 2973 -648 
Q 2816 -972 2473 -1159 
Q 2131 -1347 1631 -1347 
Q 1038 -1347 672 -1080 
Q 306 -813 319 -275 
z
M 784 1719 
Q 784 1066 1043 766 
Q 1303 466 1694 466 
Q 2081 466 2343 764 
Q 2606 1063 2606 1700 
Q 2606 2309 2336 2618 
Q 2066 2928 1684 2928 
Q 1309 2928 1046 2623 
Q 784 2319 784 1719 
z
" transform="scale(0.015625)"/>
      <path id="ArialMT-e" d="M 1603 741 
L 1603 1997 
L 356 1997 
L 356 2522 
L 1603 2522 
L 1603 3769 
L 2134 3769 
L 2134 2522 
L 3381 2522 
L 3381 1997 
L 2134 1997 
L 2134 741 
L 1603 741 
z
" transform="scale(0.015625)"/>
      <path id="ArialMT-26" d="M 3763 1606 
L 4369 1453 
Q 4178 706 3683 314 
Q 3188 -78 2472 -78 
Q 1731 -78 1267 223 
Q 803 525 561 1097 
Q 319 1669 319 2325 
Q 319 3041 592 3573 
Q 866 4106 1370 4382 
Q 1875 4659 2481 4659 
Q 3169 4659 3637 4309 
Q 4106 3959 4291 3325 
L 3694 3184 
Q 3534 3684 3231 3912 
Q 2928 4141 2469 4141 
Q 1941 4141 1586 3887 
Q 1231 3634 1087 3207 
Q 944 2781 944 2328 
Q 944 1744 1114 1308 
Q 1284 872 1643 656 
Q 2003 441 2422 441 
Q 2931 441 3284 734 
Q 3638 1028 3763 1606 
z
" transform="scale(0.015625)"/>
      <path id="ArialMT-33" d="M 494 0 
L 494 4581 
L 2222 4581 
Q 2678 4581 2919 4538 
Q 3256 4481 3484 4323 
Q 3713 4166 3852 3881 
Q 3991 3597 3991 3256 
Q 3991 2672 3619 2267 
Q 3247 1863 2275 1863 
L 1100 1863 
L 1100 0 
L 494 0 
z
M 1100 2403 
L 2284 2403 
Q 2872 2403 3119 2622 
Q 3366 2841 3366 3238 
Q 3366 3525 3220 3729 
Q 3075 3934 2838 4000 
Q 2684 4041 2272 4041 
L 1100 4041 
L 1100 2403 
z
" transform="scale(0.015625)"/>
      <path id="ArialMT-c" d="M 791 -1347 
L 388 -1347 
Q 1322 153 1322 1656 
Q 1322 2244 1188 2822 
Q 1081 3291 891 3722 
Q 769 4003 388 4659 
L 791 4659 
Q 1378 3875 1659 3084 
Q 1900 2403 1900 1659 
Q 1900 816 1576 28 
Q 1253 -759 791 -1347 
z
" transform="scale(0.015625)"/>
     </defs>
     <use xlink:href="#ArialMT-36"/>
     <use xlink:href="#ArialMT-53" transform="translate(66.703125 0)"/>
     <use xlink:href="#ArialMT-44" transform="translate(122.3125 0)"/>
     <use xlink:href="#ArialMT-57" transform="translate(177.921875 0)"/>
     <use xlink:href="#ArialMT-4c" transform="translate(205.703125 0)"/>
     <use xlink:href="#ArialMT-44" transform="translate(227.921875 0)"/>
     <use xlink:href="#ArialMT-4f" transform="translate(283.53125 0)"/>
     <use xlink:href="#ArialMT-10" transform="translate(305.75 0)"/>
     <use xlink:href="#ArialMT-4c" transform="translate(339.046875 0)"/>
     <use xlink:href="#ArialMT-51" transform="translate(361.265625 0)"/>
     <use xlink:href="#ArialMT-57" transform="translate(416.875 0)"/>
     <use xlink:href="#ArialMT-48" transform="translate(444.65625 0)"/>
     <use xlink:href="#ArialMT-55" transform="translate(500.265625 0)"/>
     <use xlink:href="#ArialMT-44" transform="translate(533.5625 0)"/>
     <use xlink:href="#ArialMT-46" transform="translate(589.171875 0)"/>
     <use xlink:href="#ArialMT-57" transform="translate(639.171875 0)"/>
     <use xlink:href="#ArialMT-4c" transform="translate(666.953125 0)"/>
     <use xlink:href="#ArialMT-52" transform="translate(689.171875 0)"/>
     <use xlink:href="#ArialMT-51" transform="translate(744.78125 0)"/>
     <use xlink:href="#ArialMT-3" transform="translate(800.390625 0)"/>
     <use xlink:href="#ArialMT-4f" transform="translate(828.171875 0)"/>
     <use xlink:href="#ArialMT-44" transform="translate(850.390625 0)"/>
     <use xlink:href="#ArialMT-5a" transform="translate(906 0)"/>
     <use xlink:href="#ArialMT-3" transform="translate(978.21875 0)"/>
     <use xlink:href="#ArialMT-52" transform="translate(1006 0)"/>
     <use xlink:href="#ArialMT-59" transform="translate(1061.609375 0)"/>
     <use xlink:href="#ArialMT-48" transform="translate(1111.609375 0)"/>
     <use xlink:href="#ArialMT-55" transform="translate(1167.21875 0)"/>
     <use xlink:href="#ArialMT-3" transform="translate(1200.515625 0)"/>
     <use xlink:href="#ArialMT-57" transform="translate(1228.296875 0)"/>
     <use xlink:href="#ArialMT-4c" transform="translate(1256.078125 0)"/>
     <use xlink:href="#ArialMT-50" transform="translate(1278.296875 0)"/>
     <use xlink:href="#ArialMT-48" transform="translate(1361.59375 0)"/>
     <use xlink:href="#ArialMT-3" transform="translate(1417.203125 0)"/>
     <use xlink:href="#ArialMT-b" transform="translate(1444.984375 0)"/>
     <use xlink:href="#ArialMT-4a" transform="translate(1478.28125 0)"/>
     <use xlink:href="#ArialMT-55" transform="translate(1533.890625 0)"/>
     <use xlink:href="#ArialMT-44" transform="translate(1567.1875 0)"/>
     <use xlink:href="#ArialMT-59" transform="translate(1622.796875 0)"/>
     <use xlink:href="#ArialMT-4c" transform="translate(1672.796875 0)"/>
     <use xlink:href="#ArialMT-57" transform="translate(1695.015625 0)"/>
     <use xlink:href="#ArialMT-5c" transform="translate(1722.796875 0)"/>
     <use xlink:href="#ArialMT-3" transform="translate(1772.796875 0)"/>
     <use xlink:href="#ArialMT-45" transform="translate(1800.578125 0)"/>
     <use xlink:href="#ArialMT-48" transform="translate(1856.1875 0)"/>
     <use xlink:href="#ArialMT-57" transform="translate(1911.796875 0)"/>
     <use xlink:href="#ArialMT-44" transform="translate(1939.578125 0)"/>
     <use xlink:href="#ArialMT-3" transform="translate(1995.1875 0)"/>
     <use xlink:href="#ArialMT-e" transform="translate(2022.96875 0)"/>
     <use xlink:href="#ArialMT-3" transform="translate(2081.375 0)"/>
     <use xlink:href="#ArialMT-26" transform="translate(2109.15625 0)"/>
     <use xlink:href="#ArialMT-33" transform="translate(2181.375 0)"/>
     <use xlink:href="#ArialMT-26" transform="translate(2248.078125 0)"/>
     <use xlink:href="#ArialMT-c" transform="translate(2320.296875 0)"/>
    </g>
   </g>
  </g>
  <g id="axes_2">
   <g id="matplotlib.axis_3">
    <g id="ytick_6">
     <g id="line2d_17">
      <path d="M 49.930488 288.921961 
L 580.030488 288.921961 
" clip-path="url(#pa9ffb18dc3)" style="fill: none; stroke: #cccccc; stroke-width: 0.8; stroke-linecap: round"/>
     </g>
     <g id="line2d_18">
      <defs>
       <path id="md8170ed151" d="M 0 0 
L 3.5 0 
" style="stroke: #262626; stroke-width: 0.8"/>
      </defs>
      <g>
       <use xlink:href="#md8170ed151" x="580.030488" y="288.921961" style="fill: #262626; stroke: #262626; stroke-width: 0.8"/>
      </g>
     </g>
     <g id="text_14">
      <!-- 0.7950 -->
      <g style="fill: #e6550d" transform="translate(587.030488 292.926111) scale(0.11 -0.11)">
       <defs>
        <path id="ArialMT-1a" d="M 303 3981 
L 303 4522 
L 3269 4522 
L 3269 4084 
Q 2831 3619 2401 2847 
Q 1972 2075 1738 1259 
Q 1569 684 1522 0 
L 944 0 
Q 953 541 1156 1306 
Q 1359 2072 1739 2783 
Q 2119 3494 2547 3981 
L 303 3981 
z
" transform="scale(0.015625)"/>
        <path id="ArialMT-1c" d="M 350 1059 
L 891 1109 
Q 959 728 1153 556 
Q 1347 384 1650 384 
Q 1909 384 2104 503 
Q 2300 622 2425 820 
Q 2550 1019 2634 1356 
Q 2719 1694 2719 2044 
Q 2719 2081 2716 2156 
Q 2547 1888 2255 1720 
Q 1963 1553 1622 1553 
Q 1053 1553 659 1965 
Q 266 2378 266 3053 
Q 266 3750 677 4175 
Q 1088 4600 1706 4600 
Q 2153 4600 2523 4359 
Q 2894 4119 3086 3673 
Q 3278 3228 3278 2384 
Q 3278 1506 3087 986 
Q 2897 466 2520 194 
Q 2144 -78 1638 -78 
Q 1100 -78 759 220 
Q 419 519 350 1059 
z
M 2653 3081 
Q 2653 3566 2395 3850 
Q 2138 4134 1775 4134 
Q 1400 4134 1122 3828 
Q 844 3522 844 3034 
Q 844 2597 1108 2323 
Q 1372 2050 1759 2050 
Q 2150 2050 2401 2323 
Q 2653 2597 2653 3081 
z
" transform="scale(0.015625)"/>
       </defs>
       <use xlink:href="#ArialMT-13"/>
       <use xlink:href="#ArialMT-11" transform="translate(55.609375 0)"/>
       <use xlink:href="#ArialMT-1a" transform="translate(83.390625 0)"/>
       <use xlink:href="#ArialMT-1c" transform="translate(139 0)"/>
       <use xlink:href="#ArialMT-18" transform="translate(194.609375 0)"/>
       <use xlink:href="#ArialMT-13" transform="translate(250.21875 0)"/>
      </g>
     </g>
    </g>
    <g id="ytick_7">
     <g id="line2d_19">
      <path d="M 49.930488 258.681961 
L 580.030488 258.681961 
" clip-path="url(#pa9ffb18dc3)" style="fill: none; stroke: #cccccc; stroke-width: 0.8; stroke-linecap: round"/>
     </g>
     <g id="line2d_20">
      <g>
       <use xlink:href="#md8170ed151" x="580.030488" y="258.681961" style="fill: #262626; stroke: #262626; stroke-width: 0.8"/>
      </g>
     </g>
     <g id="text_15">
      <!-- 0.7975 -->
      <g style="fill: #e6550d" transform="translate(587.030488 262.686111) scale(0.11 -0.11)">
       <use xlink:href="#ArialMT-13"/>
       <use xlink:href="#ArialMT-11" transform="translate(55.609375 0)"/>
       <use xlink:href="#ArialMT-1a" transform="translate(83.390625 0)"/>
       <use xlink:href="#ArialMT-1c" transform="translate(139 0)"/>
       <use xlink:href="#ArialMT-1a" transform="translate(194.609375 0)"/>
       <use xlink:href="#ArialMT-18" transform="translate(250.21875 0)"/>
      </g>
     </g>
    </g>
    <g id="ytick_8">
     <g id="line2d_21">
      <path d="M 49.930488 228.441961 
L 580.030488 228.441961 
" clip-path="url(#pa9ffb18dc3)" style="fill: none; stroke: #cccccc; stroke-width: 0.8; stroke-linecap: round"/>
     </g>
     <g id="line2d_22">
      <g>
       <use xlink:href="#md8170ed151" x="580.030488" y="228.441961" style="fill: #262626; stroke: #262626; stroke-width: 0.8"/>
      </g>
     </g>
     <g id="text_16">
      <!-- 0.8000 -->
      <g style="fill: #e6550d" transform="translate(587.030488 232.446111) scale(0.11 -0.11)">
       <use xlink:href="#ArialMT-13"/>
       <use xlink:href="#ArialMT-11" transform="translate(55.609375 0)"/>
       <use xlink:href="#ArialMT-1b" transform="translate(83.390625 0)"/>
       <use xlink:href="#ArialMT-13" transform="translate(139 0)"/>
       <use xlink:href="#ArialMT-13" transform="translate(194.609375 0)"/>
       <use xlink:href="#ArialMT-13" transform="translate(250.21875 0)"/>
      </g>
     </g>
    </g>
    <g id="ytick_9">
     <g id="line2d_23">
      <path d="M 49.930488 198.201961 
L 580.030488 198.201961 
" clip-path="url(#pa9ffb18dc3)" style="fill: none; stroke: #cccccc; stroke-width: 0.8; stroke-linecap: round"/>
     </g>
     <g id="line2d_24">
      <g>
       <use xlink:href="#md8170ed151" x="580.030488" y="198.201961" style="fill: #262626; stroke: #262626; stroke-width: 0.8"/>
      </g>
     </g>
     <g id="text_17">
      <!-- 0.8025 -->
      <g style="fill: #e6550d" transform="translate(587.030488 202.206111) scale(0.11 -0.11)">
       <use xlink:href="#ArialMT-13"/>
       <use xlink:href="#ArialMT-11" transform="translate(55.609375 0)"/>
       <use xlink:href="#ArialMT-1b" transform="translate(83.390625 0)"/>
       <use xlink:href="#ArialMT-13" transform="translate(139 0)"/>
       <use xlink:href="#ArialMT-15" transform="translate(194.609375 0)"/>
       <use xlink:href="#ArialMT-18" transform="translate(250.21875 0)"/>
      </g>
     </g>
    </g>
    <g id="ytick_10">
     <g id="line2d_25">
      <path d="M 49.930488 167.961961 
L 580.030488 167.961961 
" clip-path="url(#pa9ffb18dc3)" style="fill: none; stroke: #cccccc; stroke-width: 0.8; stroke-linecap: round"/>
     </g>
     <g id="line2d_26">
      <g>
       <use xlink:href="#md8170ed151" x="580.030488" y="167.961961" style="fill: #262626; stroke: #262626; stroke-width: 0.8"/>
      </g>
     </g>
     <g id="text_18">
      <!-- 0.8050 -->
      <g style="fill: #e6550d" transform="translate(587.030488 171.966111) scale(0.11 -0.11)">
       <use xlink:href="#ArialMT-13"/>
       <use xlink:href="#ArialMT-11" transform="translate(55.609375 0)"/>
       <use xlink:href="#ArialMT-1b" transform="translate(83.390625 0)"/>
       <use xlink:href="#ArialMT-13" transform="translate(139 0)"/>
       <use xlink:href="#ArialMT-18" transform="translate(194.609375 0)"/>
       <use xlink:href="#ArialMT-13" transform="translate(250.21875 0)"/>
      </g>
     </g>
    </g>
    <g id="ytick_11">
     <g id="line2d_27">
      <path d="M 49.930488 137.721961 
L 580.030488 137.721961 
" clip-path="url(#pa9ffb18dc3)" style="fill: none; stroke: #cccccc; stroke-width: 0.8; stroke-linecap: round"/>
     </g>
     <g id="line2d_28">
      <g>
       <use xlink:href="#md8170ed151" x="580.030488" y="137.721961" style="fill: #262626; stroke: #262626; stroke-width: 0.8"/>
      </g>
     </g>
     <g id="text_19">
      <!-- 0.8075 -->
      <g style="fill: #e6550d" transform="translate(587.030488 141.726111) scale(0.11 -0.11)">
       <use xlink:href="#ArialMT-13"/>
       <use xlink:href="#ArialMT-11" transform="translate(55.609375 0)"/>
       <use xlink:href="#ArialMT-1b" transform="translate(83.390625 0)"/>
       <use xlink:href="#ArialMT-13" transform="translate(139 0)"/>
       <use xlink:href="#ArialMT-1a" transform="translate(194.609375 0)"/>
       <use xlink:href="#ArialMT-18" transform="translate(250.21875 0)"/>
      </g>
     </g>
    </g>
    <g id="ytick_12">
     <g id="line2d_29">
      <path d="M 49.930488 107.481961 
L 580.030488 107.481961 
" clip-path="url(#pa9ffb18dc3)" style="fill: none; stroke: #cccccc; stroke-width: 0.8; stroke-linecap: round"/>
     </g>
     <g id="line2d_30">
      <g>
       <use xlink:href="#md8170ed151" x="580.030488" y="107.481961" style="fill: #262626; stroke: #262626; stroke-width: 0.8"/>
      </g>
     </g>
     <g id="text_20">
      <!-- 0.8100 -->
      <g style="fill: #e6550d" transform="translate(587.030488 111.486111) scale(0.11 -0.11)">
       <use xlink:href="#ArialMT-13"/>
       <use xlink:href="#ArialMT-11" transform="translate(55.609375 0)"/>
       <use xlink:href="#ArialMT-1b" transform="translate(83.390625 0)"/>
       <use xlink:href="#ArialMT-14" transform="translate(139 0)"/>
       <use xlink:href="#ArialMT-13" transform="translate(194.609375 0)"/>
       <use xlink:href="#ArialMT-13" transform="translate(250.21875 0)"/>
      </g>
     </g>
    </g>
    <g id="ytick_13">
     <g id="line2d_31">
      <path d="M 49.930488 77.241961 
L 580.030488 77.241961 
" clip-path="url(#pa9ffb18dc3)" style="fill: none; stroke: #cccccc; stroke-width: 0.8; stroke-linecap: round"/>
     </g>
     <g id="line2d_32">
      <g>
       <use xlink:href="#md8170ed151" x="580.030488" y="77.241961" style="fill: #262626; stroke: #262626; stroke-width: 0.8"/>
      </g>
     </g>
     <g id="text_21">
      <!-- 0.8125 -->
      <g style="fill: #e6550d" transform="translate(587.030488 81.246111) scale(0.11 -0.11)">
       <use xlink:href="#ArialMT-13"/>
       <use xlink:href="#ArialMT-11" transform="translate(55.609375 0)"/>
       <use xlink:href="#ArialMT-1b" transform="translate(83.390625 0)"/>
       <use xlink:href="#ArialMT-14" transform="translate(139 0)"/>
       <use xlink:href="#ArialMT-15" transform="translate(194.609375 0)"/>
       <use xlink:href="#ArialMT-18" transform="translate(250.21875 0)"/>
      </g>
     </g>
    </g>
    <g id="ytick_14">
     <g id="line2d_33">
      <path d="M 49.930488 47.001961 
L 580.030488 47.001961 
" clip-path="url(#pa9ffb18dc3)" style="fill: none; stroke: #cccccc; stroke-width: 0.8; stroke-linecap: round"/>
     </g>
     <g id="line2d_34">
      <g>
       <use xlink:href="#md8170ed151" x="580.030488" y="47.001961" style="fill: #262626; stroke: #262626; stroke-width: 0.8"/>
      </g>
     </g>
     <g id="text_22">
      <!-- 0.8150 -->
      <g style="fill: #e6550d" transform="translate(587.030488 51.006111) scale(0.11 -0.11)">
       <use xlink:href="#ArialMT-13"/>
       <use xlink:href="#ArialMT-11" transform="translate(55.609375 0)"/>
       <use xlink:href="#ArialMT-1b" transform="translate(83.390625 0)"/>
       <use xlink:href="#ArialMT-14" transform="translate(139 0)"/>
       <use xlink:href="#ArialMT-18" transform="translate(194.609375 0)"/>
       <use xlink:href="#ArialMT-13" transform="translate(250.21875 0)"/>
      </g>
     </g>
    </g>
    <g id="text_23">
     <!-- common part of commuters -->
     <g style="fill: #e6550d" transform="translate(632.679883 222.798383) rotate(-90) scale(0.11 -0.11)">
      <defs>
       <path id="ArialMT-49" d="M 556 0 
L 556 2881 
L 59 2881 
L 59 3319 
L 556 3319 
L 556 3672 
Q 556 4006 616 4169 
Q 697 4388 901 4523 
Q 1106 4659 1475 4659 
Q 1713 4659 2000 4603 
L 1916 4113 
Q 1741 4144 1584 4144 
Q 1328 4144 1222 4034 
Q 1116 3925 1116 3625 
L 1116 3319 
L 1763 3319 
L 1763 2881 
L 1116 2881 
L 1116 0 
L 556 0 
z
" transform="scale(0.015625)"/>
      </defs>
      <use xlink:href="#ArialMT-46"/>
      <use xlink:href="#ArialMT-52" transform="translate(50 0)"/>
      <use xlink:href="#ArialMT-50" transform="translate(105.609375 0)"/>
      <use xlink:href="#ArialMT-50" transform="translate(188.90625 0)"/>
      <use xlink:href="#ArialMT-52" transform="translate(272.203125 0)"/>
      <use xlink:href="#ArialMT-51" transform="translate(327.8125 0)"/>
      <use xlink:href="#ArialMT-3" transform="translate(383.421875 0)"/>
      <use xlink:href="#ArialMT-53" transform="translate(411.203125 0)"/>
      <use xlink:href="#ArialMT-44" transform="translate(466.8125 0)"/>
      <use xlink:href="#ArialMT-55" transform="translate(522.421875 0)"/>
      <use xlink:href="#ArialMT-57" transform="translate(555.71875 0)"/>
      <use xlink:href="#ArialMT-3" transform="translate(583.5 0)"/>
      <use xlink:href="#ArialMT-52" transform="translate(611.28125 0)"/>
      <use xlink:href="#ArialMT-49" transform="translate(666.890625 0)"/>
      <use xlink:href="#ArialMT-3" transform="translate(694.671875 0)"/>
      <use xlink:href="#ArialMT-46" transform="translate(722.453125 0)"/>
      <use xlink:href="#ArialMT-52" transform="translate(772.453125 0)"/>
      <use xlink:href="#ArialMT-50" transform="translate(828.0625 0)"/>
      <use xlink:href="#ArialMT-50" transform="translate(911.359375 0)"/>
      <use xlink:href="#ArialMT-58" transform="translate(994.65625 0)"/>
      <use xlink:href="#ArialMT-57" transform="translate(1050.265625 0)"/>
      <use xlink:href="#ArialMT-48" transform="translate(1078.046875 0)"/>
      <use xlink:href="#ArialMT-55" transform="translate(1133.65625 0)"/>
      <use xlink:href="#ArialMT-56" transform="translate(1166.953125 0)"/>
     </g>
    </g>
   </g>
   <g id="line2d_35">
    <path d="M 74.025943 34.905961 
L 127.571397 95.385961 
L 181.116852 143.769961 
L 234.662306 155.865961 
L 288.207761 192.153961 
L 341.753216 276.825961 
L 395.29867 180.057961 
L 448.844125 95.385961 
L 502.389579 143.769961 
L 555.935034 192.153961 
" clip-path="url(#pa9ffb18dc3)" style="fill: none; stroke: #e6550d; stroke-width: 1.5; stroke-linecap: round"/>
    <defs>
     <path id="m0a4ccf7684" d="M -3 3 
L 3 3 
L 3 -3 
L -3 -3 
z
" style="stroke: #e6550d; stroke-linejoin: miter"/>
    </defs>
    <g clip-path="url(#pa9ffb18dc3)">
     <use xlink:href="#m0a4ccf7684" x="74.025943" y="34.905961" style="fill: #e6550d; stroke: #e6550d; stroke-linejoin: miter"/>
     <use xlink:href="#m0a4ccf7684" x="127.571397" y="95.385961" style="fill: #e6550d; stroke: #e6550d; stroke-linejoin: miter"/>
     <use xlink:href="#m0a4ccf7684" x="181.116852" y="143.769961" style="fill: #e6550d; stroke: #e6550d; stroke-linejoin: miter"/>
     <use xlink:href="#m0a4ccf7684" x="234.662306" y="155.865961" style="fill: #e6550d; stroke: #e6550d; stroke-linejoin: miter"/>
     <use xlink:href="#m0a4ccf7684" x="288.207761" y="192.153961" style="fill: #e6550d; stroke: #e6550d; stroke-linejoin: miter"/>
     <use xlink:href="#m0a4ccf7684" x="341.753216" y="276.825961" style="fill: #e6550d; stroke: #e6550d; stroke-linejoin: miter"/>
     <use xlink:href="#m0a4ccf7684" x="395.29867" y="180.057961" style="fill: #e6550d; stroke: #e6550d; stroke-linejoin: miter"/>
     <use xlink:href="#m0a4ccf7684" x="448.844125" y="95.385961" style="fill: #e6550d; stroke: #e6550d; stroke-linejoin: miter"/>
     <use xlink:href="#m0a4ccf7684" x="502.389579" y="143.769961" style="fill: #e6550d; stroke: #e6550d; stroke-linejoin: miter"/>
     <use xlink:href="#m0a4ccf7684" x="555.935034" y="192.153961" style="fill: #e6550d; stroke: #e6550d; stroke-linejoin: miter"/>
    </g>
   </g>
   <g id="patch_8">
    <path d="M 49.930488 288.921961 
L 49.930488 22.809961 
" style="fill: none; stroke: #cccccc; stroke-width: 0.8; stroke-linejoin: miter; stroke-linecap: square"/>
   </g>
   <g id="patch_9">
    <path d="M 580.030488 288.921961 
L 580.030488 22.809961 
" style="fill: none; stroke: #cccccc; stroke-width: 0.8; stroke-linejoin: miter; stroke-linecap: square"/>
   </g>
   <g id="patch_10">
    <path d="M 49.930488 288.921961 
L 580.030488 288.921961 
" style="fill: none; stroke: #cccccc; stroke-width: 0.8; stroke-linejoin: miter; stroke-linecap: square"/>
   </g>
   <g id="patch_11">
    <path d="M 49.930488 22.809961 
L 580.030488 22.809961 
" style="fill: none; stroke: #cccccc; stroke-width: 0.8; stroke-linejoin: miter; stroke-linecap: square"/>
   </g>
  </g>
 </g>
 <defs>
  <clipPath id="pa9ffb18dc3">
   <rect x="49.930488" y="22.809961" width="530.1" height="266.112"/>
  </clipPath>
 </defs>
</svg>
