<?xml version="1.0" encoding="utf-8" standalone="no"?>
<!DOCTYPE svg PUBLIC "-//W3C//DTD SVG 1.1//EN"
  "http://www.w3.org/Graphics/SVG/1.1/DTD/svg11.dtd">
<svg xmlns:xlink="http://www.w3.org/1999/xlink" width="717.55752pt" height="311.13666pt" viewBox="0 0 717.55752 311.13666" xmlns="http://www.w3.org/2000/svg" version="1.1">
 <metadata>
  <rdf:RDF xmlns:dc="http://purl.org/dc/elements/1.1/" xmlns:cc="http://creativecommons.org/ns#" xmlns:rdf="http://www.w3.org/1999/02/22-rdf-syntax-ns#">
   <cc:Work>
    <dc:type rdf:resource="http://purl.org/dc/dcmitype/StillImage"/>
    <dc:date>2026-06-18T21:18:03.956095</dc:date>
    <dc:format>image/svg+xml</dc:format>
    <dc:creator>
     <cc:Agent>
      <dc:title>Matplotlib v3.11.0, https://matplotlib.org/</dc:title>
     </cc:Agent>
    </dc:creator>
   </cc:Work>
  </rdf:RDF>
 </metadata>
 <defs>
  <style type="text/css">*{stroke-linejoin: round; stroke-linecap: butt}</style>
 </defs>
 <g id="figure_1">
  <g id="patch_1">
   <path d="M 0 311.13666 
L 717.55752 311.13666 
L 717.55752 0 
L 0 0 
z
" style="fill: #ffffff"/>
  </g>
  <g id="axes_1">
   <g id="patch_2">
    <path d="M 40.75752 272.289961 
L 710.35752 272.289961 
L 710.35752 22.809961 
L 40.75752 22.809961 
z
" style="fill: #ffffff"/>
   </g>
   <g id="matplotlib.axis_1">
    <g id="xtick_1">
     <g id="line2d_1">
      <path d="M 132.578146 272.289961 
L 132.578146 22.809961 
" clip-path="url(#p638c0534da)" style="fill: none; stroke: #cccccc; stroke-width: 0.8; stroke-linecap: round"/>
     </g>
     <g id="text_1">
      <!-- 2016 -->
      <g style="fill: #262626" transform="translate(120.344083 287.298262) scale(0.11 -0.11)">
       <defs>
        <path id="ArialMT-15" d="M 3222 541 
L 3222 0 
L 194 0 
Q 188 203 259 391 
Q 375 700 629 1000 
Q 884 1300 1366 1694 
Q 2113 2306 2375 2664 
Q 2638 3022 2638 3341 
Q 2638 3675 2398 3904 
Q 2159 4134 1775 4134 
Q 1369 4134 1125 3890 
Q 881 3647 878 3216 
L 300 3275 
Q 359 3922 746 4261 
Q 1134 4600 1788 4600 
Q 2447 4600 2831 4234 
Q 3216 3869 3216 3328 
Q 3216 3053 3103 2787 
Q 2991 2522 2730 2228 
Q 2469 1934 1863 1422 
Q 1356 997 1212 845 
Q 1069 694 975 541 
L 3222 541 
z
" transform="scale(0.015625)"/>
        <path id="ArialMT-13" d="M 266 2259 
Q 266 3072 433 3567 
Q 600 4063 929 4331 
Q 1259 4600 1759 4600 
Q 2128 4600 2406 4451 
Q 2684 4303 2865 4023 
Q 3047 3744 3150 3342 
Q 3253 2941 3253 2259 
Q 3253 1453 3087 958 
Q 2922 463 2592 192 
Q 2263 -78 1759 -78 
Q 1097 -78 719 397 
Q 266 969 266 2259 
z
M 844 2259 
Q 844 1131 1108 757 
Q 1372 384 1759 384 
Q 2147 384 2411 759 
Q 2675 1134 2675 2259 
Q 2675 3391 2411 3762 
Q 2147 4134 1753 4134 
Q 1366 4134 1134 3806 
Q 844 3388 844 2259 
z
" transform="scale(0.015625)"/>
        <path id="ArialMT-14" d="M 2384 0 
L 1822 0 
L 1822 3584 
Q 1619 3391 1289 3197 
Q 959 3003 697 2906 
L 697 3450 
Q 1169 3672 1522 3987 
Q 1875 4303 2022 4600 
L 2384 4600 
L 2384 0 
z
" transform="scale(0.015625)"/>
        <path id="ArialMT-19" d="M 3184 3459 
L 2625 3416 
Q 2550 3747 2413 3897 
Q 2184 4138 1850 4138 
Q 1581 4138 1378 3988 
Q 1113 3794 959 3422 
Q 806 3050 800 2363 
Q 1003 2672 1297 2822 
Q 1591 2972 1913 2972 
Q 2475 2972 2870 2558 
Q 3266 2144 3266 1488 
Q 3266 1056 3080 686 
Q 2894 316 2569 119 
Q 2244 -78 1831 -78 
Q 1128 -78 684 439 
Q 241 956 241 2144 
Q 241 3472 731 4075 
Q 1159 4600 1884 4600 
Q 2425 4600 2770 4297 
Q 3116 3994 3184 3459 
z
M 888 1484 
Q 888 1194 1011 928 
Q 1134 663 1356 523 
Q 1578 384 1822 384 
Q 2178 384 2434 671 
Q 2691 959 2691 1453 
Q 2691 1928 2437 2201 
Q 2184 2475 1800 2475 
Q 1419 2475 1153 2201 
Q 888 1928 888 1484 
z
" transform="scale(0.015625)"/>
       </defs>
       <use xlink:href="#ArialMT-15"/>
       <use xlink:href="#ArialMT-13" transform="translate(55.609375 0)"/>
       <use xlink:href="#ArialMT-14" transform="translate(111.21875 0)"/>
       <use xlink:href="#ArialMT-19" transform="translate(166.828125 0)"/>
      </g>
     </g>
    </g>
    <g id="xtick_2">
     <g id="line2d_2">
      <path d="M 255.346672 272.289961 
L 255.346672 22.809961 
" clip-path="url(#p638c0534da)" style="fill: none; stroke: #cccccc; stroke-width: 0.8; stroke-linecap: round"/>
     </g>
     <g id="text_2">
      <!-- 2018 -->
      <g style="fill: #262626" transform="translate(243.112609 287.298262) scale(0.11 -0.11)">
       <defs>
        <path id="ArialMT-1b" d="M 1131 2484 
Q 781 2613 612 2850 
Q 444 3088 444 3419 
Q 444 3919 803 4259 
Q 1163 4600 1759 4600 
Q 2359 4600 2725 4251 
Q 3091 3903 3091 3403 
Q 3091 3084 2923 2848 
Q 2756 2613 2416 2484 
Q 2838 2347 3058 2040 
Q 3278 1734 3278 1309 
Q 3278 722 2862 322 
Q 2447 -78 1769 -78 
Q 1091 -78 675 323 
Q 259 725 259 1325 
Q 259 1772 486 2073 
Q 713 2375 1131 2484 
z
M 1019 3438 
Q 1019 3113 1228 2906 
Q 1438 2700 1772 2700 
Q 2097 2700 2305 2904 
Q 2513 3109 2513 3406 
Q 2513 3716 2298 3927 
Q 2084 4138 1766 4138 
Q 1444 4138 1231 3931 
Q 1019 3725 1019 3438 
z
M 838 1322 
Q 838 1081 952 856 
Q 1066 631 1291 507 
Q 1516 384 1775 384 
Q 2178 384 2440 643 
Q 2703 903 2703 1303 
Q 2703 1709 2433 1975 
Q 2163 2241 1756 2241 
Q 1359 2241 1098 1978 
Q 838 1716 838 1322 
z
" transform="scale(0.015625)"/>
       </defs>
       <use xlink:href="#ArialMT-15"/>
       <use xlink:href="#ArialMT-13" transform="translate(55.609375 0)"/>
       <use xlink:href="#ArialMT-14" transform="translate(111.21875 0)"/>
       <use xlink:href="#ArialMT-1b" transform="translate(166.828125 0)"/>
      </g>
     </g>
    </g>
    <g id="xtick_3">
     <g id="line2d_3">
      <path d="M 378.115197 272.289961 
L 378.115197 22.809961 
" clip-path="url(#p638c0534da)" style="fill: none; stroke: #cccccc; stroke-width: 0.8; stroke-linecap: round"/>
     </g>
     <g id="text_3">
      <!-- 2020 -->
      <g style="fill: #262626" transform="translate(365.881135 287.298262) scale(0.11 -0.11)">
       <use xlink:href="#ArialMT-15"/>
       <use xlink:href="#ArialMT-13" transform="translate(55.609375 0)"/>
       <use xlink:href="#ArialMT-15" transform="translate(111.21875 0)"/>
       <use xlink:href="#ArialMT-13" transform="translate(166.828125 0)"/>
      </g>
     </g>
    </g>
    <g id="xtick_4">
     <g id="line2d_4">
      <path d="M 500.883723 272.289961 
L 500.883723 22.809961 
" clip-path="url(#p638c0534da)" style="fill: none; stroke: #cccccc; stroke-width: 0.8; stroke-linecap: round"/>
     </g>
     <g id="text_4">
      <!-- 2022 -->
      <g style="fill: #262626" transform="translate(488.64966 287.298262) scale(0.11 -0.11)">
       <use xlink:href="#ArialMT-15"/>
       <use xlink:href="#ArialMT-13" transform="translate(55.609375 0)"/>
       <use xlink:href="#ArialMT-15" transform="translate(111.21875 0)"/>
       <use xlink:href="#ArialMT-15" transform="translate(166.828125 0)"/>
      </g>
     </g>
    </g>
    <g id="xtick_5">
     <g id="line2d_5">
      <path d="M 623.652248 272.289961 
L 623.652248 22.809961 
" clip-path="url(#p638c0534da)" style="fill: none; stroke: #cccccc; stroke-width: 0.8; stroke-linecap: round"/>
     </g>
     <g id="text_5">
      <!-- 2024 -->
      <g style="fill: #262626" transform="translate(611.418186 287.298262) scale(0.11 -0.11)">
       <defs>
        <path id="ArialMT-17" d="M 2069 0 
L 2069 1097 
L 81 1097 
L 81 1613 
L 2172 4581 
L 2631 4581 
L 2631 1613 
L 3250 1613 
L 3250 1097 
L 2631 1097 
L 2631 0 
L 2069 0 
z
M 2069 1613 
L 2069 3678 
L 634 1613 
L 2069 1613 
z
" transform="scale(0.015625)"/>
       </defs>
       <use xlink:href="#ArialMT-15"/>
       <use xlink:href="#ArialMT-13" transform="translate(55.609375 0)"/>
       <use xlink:href="#ArialMT-15" transform="translate(111.21875 0)"/>
       <use xlink:href="#ArialMT-17" transform="translate(166.828125 0)"/>
      </g>
     </g>
    </g>
    <g id="text_6">
     <!-- year -->
     <g style="fill: #262626" transform="translate(364.85916 301.621504) scale(0.11 -0.11)">
      <defs>
       <path id="ArialMT-5c" d="M 397 -1278 
L 334 -750 
Q 519 -800 656 -800 
Q 844 -800 956 -737 
Q 1069 -675 1141 -563 
Q 1194 -478 1313 -144 
Q 1328 -97 1363 -6 
L 103 3319 
L 709 3319 
L 1400 1397 
Q 1534 1031 1641 628 
Q 1738 1016 1872 1384 
L 2581 3319 
L 3144 3319 
L 1881 -56 
Q 1678 -603 1566 -809 
Q 1416 -1088 1222 -1217 
Q 1028 -1347 759 -1347 
Q 597 -1347 397 -1278 
z
" transform="scale(0.015625)"/>
       <path id="ArialMT-48" d="M 2694 1069 
L 3275 997 
Q 3138 488 2766 206 
Q 2394 -75 1816 -75 
Q 1088 -75 661 373 
Q 234 822 234 1631 
Q 234 2469 665 2931 
Q 1097 3394 1784 3394 
Q 2450 3394 2872 2941 
Q 3294 2488 3294 1666 
Q 3294 1616 3291 1516 
L 816 1516 
Q 847 969 1125 678 
Q 1403 388 1819 388 
Q 2128 388 2347 550 
Q 2566 713 2694 1069 
z
M 847 1978 
L 2700 1978 
Q 2663 2397 2488 2606 
Q 2219 2931 1791 2931 
Q 1403 2931 1139 2672 
Q 875 2413 847 1978 
z
" transform="scale(0.015625)"/>
       <path id="ArialMT-44" d="M 2588 409 
Q 2275 144 1986 34 
Q 1697 -75 1366 -75 
Q 819 -75 525 192 
Q 231 459 231 875 
Q 231 1119 342 1320 
Q 453 1522 633 1644 
Q 813 1766 1038 1828 
Q 1203 1872 1538 1913 
Q 2219 1994 2541 2106 
Q 2544 2222 2544 2253 
Q 2544 2597 2384 2738 
Q 2169 2928 1744 2928 
Q 1347 2928 1158 2789 
Q 969 2650 878 2297 
L 328 2372 
Q 403 2725 575 2942 
Q 747 3159 1072 3276 
Q 1397 3394 1825 3394 
Q 2250 3394 2515 3294 
Q 2781 3194 2906 3042 
Q 3031 2891 3081 2659 
Q 3109 2516 3109 2141 
L 3109 1391 
Q 3109 606 3145 398 
Q 3181 191 3288 0 
L 2700 0 
Q 2613 175 2588 409 
z
M 2541 1666 
Q 2234 1541 1622 1453 
Q 1275 1403 1131 1340 
Q 988 1278 909 1158 
Q 831 1038 831 891 
Q 831 666 1001 516 
Q 1172 366 1500 366 
Q 1825 366 2078 508 
Q 2331 650 2450 897 
Q 2541 1088 2541 1459 
L 2541 1666 
z
" transform="scale(0.015625)"/>
       <path id="ArialMT-55" d="M 416 0 
L 416 3319 
L 922 3319 
L 922 2816 
Q 1116 3169 1280 3281 
Q 1444 3394 1641 3394 
Q 1925 3394 2219 3213 
L 2025 2691 
Q 1819 2813 1613 2813 
Q 1428 2813 1281 2702 
Q 1134 2591 1072 2394 
Q 978 2094 978 1738 
L 978 0 
L 416 0 
z
" transform="scale(0.015625)"/>
      </defs>
      <use xlink:href="#ArialMT-5c"/>
      <use xlink:href="#ArialMT-48" transform="translate(50 0)"/>
      <use xlink:href="#ArialMT-44" transform="translate(105.609375 0)"/>
      <use xlink:href="#ArialMT-55" transform="translate(161.21875 0)"/>
     </g>
    </g>
   </g>
   <g id="matplotlib.axis_2">
    <g id="ytick_1">
     <g id="line2d_6">
      <path d="M 40.75752 265.044237 
L 710.35752 265.044237 
" clip-path="url(#p638c0534da)" style="fill: none; stroke: #cccccc; stroke-width: 0.8; stroke-linecap: round"/>
     </g>
     <g id="text_7">
      <!-- 0 -->
      <g style="fill: #262626" transform="translate(27.640488 269.048387) scale(0.11 -0.11)">
       <use xlink:href="#ArialMT-13"/>
      </g>
     </g>
    </g>
    <g id="ytick_2">
     <g id="line2d_7">
      <path d="M 40.75752 229.414265 
L 710.35752 229.414265 
" clip-path="url(#p638c0534da)" style="fill: none; stroke: #cccccc; stroke-width: 0.8; stroke-linecap: round"/>
     </g>
     <g id="text_8">
      <!-- 2 -->
      <g style="fill: #262626" transform="translate(27.640488 233.418416) scale(0.11 -0.11)">
       <use xlink:href="#ArialMT-15"/>
      </g>
     </g>
    </g>
    <g id="ytick_3">
     <g id="line2d_8">
      <path d="M 40.75752 193.784294 
L 710.35752 193.784294 
" clip-path="url(#p638c0534da)" style="fill: none; stroke: #cccccc; stroke-width: 0.8; stroke-linecap: round"/>
     </g>
     <g id="text_9">
      <!-- 4 -->
      <g style="fill: #262626" transform="translate(27.640488 197.788444) scale(0.11 -0.11)">
       <use xlink:href="#ArialMT-17"/>
      </g>
     </g>
    </g>
    <g id="ytick_4">
     <g id="line2d_9">
      <path d="M 40.75752 158.154322 
L 710.35752 158.154322 
" clip-path="url(#p638c0534da)" style="fill: none; stroke: #cccccc; stroke-width: 0.8; stroke-linecap: round"/>
     </g>
     <g id="text_10">
      <!-- 6 -->
      <g style="fill: #262626" transform="translate(27.640488 162.158473) scale(0.11 -0.11)">
       <use xlink:href="#ArialMT-19"/>
      </g>
     </g>
    </g>
    <g id="ytick_5">
     <g id="line2d_10">
      <path d="M 40.75752 122.524351 
L 710.35752 122.524351 
" clip-path="url(#p638c0534da)" style="fill: none; stroke: #cccccc; stroke-width: 0.8; stroke-linecap: round"/>
     </g>
     <g id="text_11">
      <!-- 8 -->
      <g style="fill: #262626" transform="translate(27.640488 126.528501) scale(0.11 -0.11)">
       <use xlink:href="#ArialMT-1b"/>
      </g>
     </g>
    </g>
    <g id="ytick_6">
     <g id="line2d_11">
      <path d="M 40.75752 86.894379 
L 710.35752 86.894379 
" clip-path="url(#p638c0534da)" style="fill: none; stroke: #cccccc; stroke-width: 0.8; stroke-linecap: round"/>
     </g>
     <g id="text_12">
      <!-- 10 -->
      <g style="fill: #262626" transform="translate(21.523457 90.89853) scale(0.11 -0.11)">
       <use xlink:href="#ArialMT-14"/>
       <use xlink:href="#ArialMT-13" transform="translate(55.609375 0)"/>
      </g>
     </g>
    </g>
    <g id="ytick_7">
     <g id="line2d_12">
      <path d="M 40.75752 51.264408 
L 710.35752 51.264408 
" clip-path="url(#p638c0534da)" style="fill: none; stroke: #cccccc; stroke-width: 0.8; stroke-linecap: round"/>
     </g>
     <g id="text_13">
      <!-- 12 -->
      <g style="fill: #262626" transform="translate(21.523457 55.268558) scale(0.11 -0.11)">
       <use xlink:href="#ArialMT-14"/>
       <use xlink:href="#ArialMT-15" transform="translate(55.609375 0)"/>
      </g>
     </g>
    </g>
    <g id="text_14">
     <!-- trips per month (millions) -->
     <g style="fill: #262626" transform="translate(15.208301 207.756055) rotate(-90) scale(0.11 -0.11)">
      <defs>
       <path id="ArialMT-57" d="M 1650 503 
L 1731 6 
Q 1494 -44 1306 -44 
Q 1000 -44 831 53 
Q 663 150 594 308 
Q 525 466 525 972 
L 525 2881 
L 113 2881 
L 113 3319 
L 525 3319 
L 525 4141 
L 1084 4478 
L 1084 3319 
L 1650 3319 
L 1650 2881 
L 1084 2881 
L 1084 941 
Q 1084 700 1114 631 
Q 1144 563 1211 522 
Q 1278 481 1403 481 
Q 1497 481 1650 503 
z
" transform="scale(0.015625)"/>
       <path id="ArialMT-4c" d="M 425 3934 
L 425 4581 
L 988 4581 
L 988 3934 
L 425 3934 
z
M 425 0 
L 425 3319 
L 988 3319 
L 988 0 
L 425 0 
z
" transform="scale(0.015625)"/>
       <path id="ArialMT-53" d="M 422 -1272 
L 422 3319 
L 934 3319 
L 934 2888 
Q 1116 3141 1344 3267 
Q 1572 3394 1897 3394 
Q 2322 3394 2647 3175 
Q 2972 2956 3137 2557 
Q 3303 2159 3303 1684 
Q 3303 1175 3120 767 
Q 2938 359 2589 142 
Q 2241 -75 1856 -75 
Q 1575 -75 1351 44 
Q 1128 163 984 344 
L 984 -1272 
L 422 -1272 
z
M 931 1641 
Q 931 1000 1190 694 
Q 1450 388 1819 388 
Q 2194 388 2461 705 
Q 2728 1022 2728 1688 
Q 2728 2322 2467 2637 
Q 2206 2953 1844 2953 
Q 1484 2953 1207 2617 
Q 931 2281 931 1641 
z
" transform="scale(0.015625)"/>
       <path id="ArialMT-56" d="M 197 991 
L 753 1078 
Q 800 744 1014 566 
Q 1228 388 1613 388 
Q 2000 388 2187 545 
Q 2375 703 2375 916 
Q 2375 1106 2209 1216 
Q 2094 1291 1634 1406 
Q 1016 1563 777 1677 
Q 538 1791 414 1992 
Q 291 2194 291 2438 
Q 291 2659 392 2848 
Q 494 3038 669 3163 
Q 800 3259 1026 3326 
Q 1253 3394 1513 3394 
Q 1903 3394 2198 3281 
Q 2494 3169 2634 2976 
Q 2775 2784 2828 2463 
L 2278 2388 
Q 2241 2644 2061 2787 
Q 1881 2931 1553 2931 
Q 1166 2931 1000 2803 
Q 834 2675 834 2503 
Q 834 2394 903 2306 
Q 972 2216 1119 2156 
Q 1203 2125 1616 2013 
Q 2213 1853 2448 1751 
Q 2684 1650 2818 1456 
Q 2953 1263 2953 975 
Q 2953 694 2789 445 
Q 2625 197 2315 61 
Q 2006 -75 1616 -75 
Q 969 -75 630 194 
Q 291 463 197 991 
z
" transform="scale(0.015625)"/>
       <path id="ArialMT-3" transform="scale(0.015625)"/>
       <path id="ArialMT-50" d="M 422 0 
L 422 3319 
L 925 3319 
L 925 2853 
Q 1081 3097 1340 3245 
Q 1600 3394 1931 3394 
Q 2300 3394 2536 3241 
Q 2772 3088 2869 2813 
Q 3263 3394 3894 3394 
Q 4388 3394 4653 3120 
Q 4919 2847 4919 2278 
L 4919 0 
L 4359 0 
L 4359 2091 
Q 4359 2428 4304 2576 
Q 4250 2725 4106 2815 
Q 3963 2906 3769 2906 
Q 3419 2906 3187 2673 
Q 2956 2441 2956 1928 
L 2956 0 
L 2394 0 
L 2394 2156 
Q 2394 2531 2256 2718 
Q 2119 2906 1806 2906 
Q 1569 2906 1367 2781 
Q 1166 2656 1075 2415 
Q 984 2175 984 1722 
L 984 0 
L 422 0 
z
" transform="scale(0.015625)"/>
       <path id="ArialMT-52" d="M 213 1659 
Q 213 2581 725 3025 
Q 1153 3394 1769 3394 
Q 2453 3394 2887 2945 
Q 3322 2497 3322 1706 
Q 3322 1066 3130 698 
Q 2938 331 2570 128 
Q 2203 -75 1769 -75 
Q 1072 -75 642 372 
Q 213 819 213 1659 
z
M 791 1659 
Q 791 1022 1069 705 
Q 1347 388 1769 388 
Q 2188 388 2466 706 
Q 2744 1025 2744 1678 
Q 2744 2294 2464 2611 
Q 2184 2928 1769 2928 
Q 1347 2928 1069 2612 
Q 791 2297 791 1659 
z
" transform="scale(0.015625)"/>
       <path id="ArialMT-51" d="M 422 0 
L 422 3319 
L 928 3319 
L 928 2847 
Q 1294 3394 1984 3394 
Q 2284 3394 2536 3286 
Q 2788 3178 2913 3003 
Q 3038 2828 3088 2588 
Q 3119 2431 3119 2041 
L 3119 0 
L 2556 0 
L 2556 2019 
Q 2556 2363 2490 2533 
Q 2425 2703 2258 2804 
Q 2091 2906 1866 2906 
Q 1506 2906 1245 2678 
Q 984 2450 984 1813 
L 984 0 
L 422 0 
z
" transform="scale(0.015625)"/>
       <path id="ArialMT-4b" d="M 422 0 
L 422 4581 
L 984 4581 
L 984 2938 
Q 1378 3394 1978 3394 
Q 2347 3394 2619 3248 
Q 2891 3103 3008 2847 
Q 3125 2591 3125 2103 
L 3125 0 
L 2563 0 
L 2563 2103 
Q 2563 2525 2380 2717 
Q 2197 2909 1863 2909 
Q 1613 2909 1392 2779 
Q 1172 2650 1078 2428 
Q 984 2206 984 1816 
L 984 0 
L 422 0 
z
" transform="scale(0.015625)"/>
       <path id="ArialMT-b" d="M 1497 -1347 
Q 1031 -759 709 28 
Q 388 816 388 1659 
Q 388 2403 628 3084 
Q 909 3875 1497 4659 
L 1900 4659 
Q 1522 4009 1400 3731 
Q 1209 3300 1100 2831 
Q 966 2247 966 1656 
Q 966 153 1900 -1347 
L 1497 -1347 
z
" transform="scale(0.015625)"/>
       <path id="ArialMT-4f" d="M 409 0 
L 409 4581 
L 972 4581 
L 972 0 
L 409 0 
z
" transform="scale(0.015625)"/>
       <path id="ArialMT-c" d="M 791 -1347 
L 388 -1347 
Q 1322 153 1322 1656 
Q 1322 2244 1188 2822 
Q 1081 3291 891 3722 
Q 769 4003 388 4659 
L 791 4659 
Q 1378 3875 1659 3084 
Q 1900 2403 1900 1659 
Q 1900 816 1576 28 
Q 1253 -759 791 -1347 
z
" transform="scale(0.015625)"/>
      </defs>
      <use xlink:href="#ArialMT-57"/>
      <use xlink:href="#ArialMT-55" transform="translate(27.78125 0)"/>
      <use xlink:href="#ArialMT-4c" transform="translate(61.078125 0)"/>
      <use xlink:href="#ArialMT-53" transform="translate(83.296875 0)"/>
      <use xlink:href="#ArialMT-56" transform="translate(138.90625 0)"/>
      <use xlink:href="#ArialMT-3" transform="translate(188.90625 0)"/>
      <use xlink:href="#ArialMT-53" transform="translate(216.6875 0)"/>
      <use xlink:href="#ArialMT-48" transform="translate(272.296875 0)"/>
      <use xlink:href="#ArialMT-55" transform="translate(327.90625 0)"/>
      <use xlink:href="#ArialMT-3" transform="translate(361.203125 0)"/>
      <use xlink:href="#ArialMT-50" transform="translate(388.984375 0)"/>
      <use xlink:href="#ArialMT-52" transform="translate(472.28125 0)"/>
      <use xlink:href="#ArialMT-51" transform="translate(527.890625 0)"/>
      <use xlink:href="#ArialMT-57" transform="translate(583.5 0)"/>
      <use xlink:href="#ArialMT-4b" transform="translate(611.28125 0)"/>
      <use xlink:href="#ArialMT-3" transform="translate(666.890625 0)"/>
      <use xlink:href="#ArialMT-b" transform="translate(694.671875 0)"/>
      <use xlink:href="#ArialMT-50" transform="translate(727.96875 0)"/>
      <use xlink:href="#ArialMT-4c" transform="translate(811.265625 0)"/>
      <use xlink:href="#ArialMT-4f" transform="translate(833.484375 0)"/>
      <use xlink:href="#ArialMT-4f" transform="translate(855.703125 0)"/>
      <use xlink:href="#ArialMT-4c" transform="translate(877.921875 0)"/>
      <use xlink:href="#ArialMT-52" transform="translate(900.140625 0)"/>
      <use xlink:href="#ArialMT-51" transform="translate(955.75 0)"/>
      <use xlink:href="#ArialMT-56" transform="translate(1011.359375 0)"/>
      <use xlink:href="#ArialMT-c" transform="translate(1061.359375 0)"/>
     </g>
    </g>
   </g>
   <g id="patch_3">
    <path d="M 378.115197 272.289961 
L 439.49946 272.289961 
L 439.49946 22.809961 
L 378.115197 22.809961 
z
" clip-path="url(#p638c0534da)" style="fill: #fde0dd; opacity: 0.7; stroke: #fde0dd; stroke-linejoin: miter"/>
   </g>
   <g id="line2d_13">
    <path d="M 71.193883 44.588296 
L 76.309238 49.909062 
L 81.424594 34.149961 
L 86.539949 38.470629 
L 91.655304 36.644932 
L 96.770659 50.96941 
L 101.886015 64.15282 
L 107.00137 71.728821 
L 112.116725 70.113393 
L 117.23208 51.276451 
L 122.347435 68.961904 
L 127.462791 66.288427 
L 132.578146 75.921506 
L 137.693501 67.678655 
L 142.808856 53.213082 
L 147.924212 57.984933 
L 153.039567 59.225889 
L 158.154922 71.43979 
L 163.270277 86.215557 
L 168.385633 92.349471 
L 173.500988 89.276599 
L 178.616343 76.567068 
L 183.731698 89.87317 
L 188.847054 84.540325 
L 193.962409 96.909376 
L 199.077764 106.202546 
L 204.193119 87.008146 
L 209.308474 90.732725 
L 214.42383 89.798952 
L 219.539185 97.51505 
L 224.65454 116.002374 
L 229.769895 118.78071 
L 234.885251 109.704081 
L 240.000606 95.548312 
L 245.115961 104.408025 
L 250.231316 100.841286 
L 255.346672 113.610035 
L 260.462027 117.901202 
L 265.577382 101.977384 
L 270.692737 103.903362 
L 275.808092 104.982825 
L 280.923448 114.035118 
L 286.038803 129.163747 
L 291.154158 128.941772 
L 296.269513 125.539626 
L 301.384869 112.472708 
L 306.500224 124.471618 
L 311.615579 124.027312 
L 316.730934 132.743882 
L 321.84629 142.536601 
L 326.961645 127.90583 
L 332.077 135.078162 
L 337.192355 132.976528 
L 342.307711 144.016866 
L 347.423066 155.505626 
L 352.538421 159.753538 
L 357.653776 151.005079 
L 362.769131 139.621036 
L 367.884487 145.594134 
L 372.999842 145.324379 
L 378.115197 153.69655 
L 383.230552 155.378961 
L 388.345908 212.74261 
L 393.461263 260.949961 
L 398.576618 259.064886 
L 403.691973 255.554229 
L 408.807329 251.222337 
L 413.922684 247.60137 
L 419.038039 241.943794 
L 424.153394 236.039266 
L 429.268749 239.012231 
L 434.384105 239.861454 
L 439.49946 241.472499 
L 444.614815 241.477558 
L 449.73017 231.863719 
L 454.845526 227.545206 
L 459.960881 221.678606 
L 465.076236 215.997194 
L 470.191591 216.333202 
L 475.306947 216.973704 
L 480.422302 213.87933 
L 485.537657 205.146086 
L 490.653012 205.039962 
L 495.768368 209.639453 
L 500.883723 222.560947 
L 505.999078 213.589712 
L 511.114433 202.532057 
L 516.229788 203.057671 
L 521.345144 203.320281 
L 526.460499 203.941027 
L 531.575854 210.627472 
L 536.691209 211.078583 
L 541.806565 210.49174 
L 546.92192 202.130223 
L 552.037275 209.443898 
L 557.15263 206.961379 
L 562.267986 212.379291 
L 567.383341 214.983681 
L 572.498696 206.446134 
L 577.614051 208.511408 
L 582.729406 204.645324 
L 587.844762 208.248209 
L 592.960117 215.2534 
L 598.075472 216.661782 
L 603.190827 216.221769 
L 608.306183 204.551725 
L 613.421538 207.668545 
L 618.536893 206.945809 
L 623.652248 213.970347 
L 628.767604 213.201773 
L 633.882959 203.49127 
L 638.998314 204.690984 
L 644.113669 201.119561 
L 649.229024 204.400155 
L 654.34438 212.514026 
L 659.459735 214.230642 
L 664.57509 202.912443 
L 669.690445 199.513415 
L 674.805801 202.599077 
L 679.921156 202.419146 
" clip-path="url(#p638c0534da)" style="fill: none; stroke: #2c7fb8; stroke-width: 1.3; stroke-linecap: round"/>
   </g>
   <g id="patch_4">
    <path d="M 40.75752 272.289961 
L 40.75752 22.809961 
" style="fill: none; stroke: #cccccc; stroke-width: 0.8; stroke-linejoin: miter; stroke-linecap: square"/>
   </g>
   <g id="patch_5">
    <path d="M 710.35752 272.289961 
L 710.35752 22.809961 
" style="fill: none; stroke: #cccccc; stroke-width: 0.8; stroke-linejoin: miter; stroke-linecap: square"/>
   </g>
   <g id="patch_6">
    <path d="M 40.75752 272.289961 
L 710.35752 272.289961 
" style="fill: none; stroke: #cccccc; stroke-width: 0.8; stroke-linejoin: miter; stroke-linecap: square"/>
   </g>
   <g id="patch_7">
    <path d="M 40.75752 22.809961 
L 710.35752 22.809961 
" style="fill: none; stroke: #cccccc; stroke-width: 0.8; stroke-linejoin: miter; stroke-linecap: square"/>
   </g>
   <g id="patch_8">
    <path d="M 457.234385 224.76982 
Q 426.217776 242.366344 396.173606 259.411179 
" style="fill: none; stroke: #888888; stroke-linecap: round"/>
    <path d="M 400.193004 259.200368 
L 396.173606 259.411179 
L 398.416596 256.069174 
" style="fill: none; stroke: #888888; stroke-linecap: round"/>
   </g>
   <g id="text_15">
    <!-- COVID trough -->
    <g style="fill: #555555" transform="translate(442.568673 219.388991) scale(0.09 -0.09)">
     <defs>
      <path id="ArialMT-26" d="M 3763 1606 
L 4369 1453 
Q 4178 706 3683 314 
Q 3188 -78 2472 -78 
Q 1731 -78 1267 223 
Q 803 525 561 1097 
Q 319 1669 319 2325 
Q 319 3041 592 3573 
Q 866 4106 1370 4382 
Q 1875 4659 2481 4659 
Q 3169 4659 3637 4309 
Q 4106 3959 4291 3325 
L 3694 3184 
Q 3534 3684 3231 3912 
Q 2928 4141 2469 4141 
Q 1941 4141 1586 3887 
Q 1231 3634 1087 3207 
Q 944 2781 944 2328 
Q 944 1744 1114 1308 
Q 1284 872 1643 656 
Q 2003 441 2422 441 
Q 2931 441 3284 734 
Q 3638 1028 3763 1606 
z
" transform="scale(0.015625)"/>
      <path id="ArialMT-32" d="M 309 2231 
Q 309 3372 921 4017 
Q 1534 4663 2503 4663 
Q 3138 4663 3647 4359 
Q 4156 4056 4423 3514 
Q 4691 2972 4691 2284 
Q 4691 1588 4409 1038 
Q 4128 488 3612 205 
Q 3097 -78 2500 -78 
Q 1853 -78 1343 234 
Q 834 547 571 1087 
Q 309 1628 309 2231 
z
M 934 2222 
Q 934 1394 1379 917 
Q 1825 441 2497 441 
Q 3181 441 3623 922 
Q 4066 1403 4066 2288 
Q 4066 2847 3877 3264 
Q 3688 3681 3323 3911 
Q 2959 4141 2506 4141 
Q 1863 4141 1398 3698 
Q 934 3256 934 2222 
z
" transform="scale(0.015625)"/>
      <path id="ArialMT-39" d="M 1803 0 
L 28 4581 
L 684 4581 
L 1875 1253 
Q 2019 853 2116 503 
Q 2222 878 2363 1253 
L 3600 4581 
L 4219 4581 
L 2425 0 
L 1803 0 
z
" transform="scale(0.015625)"/>
      <path id="ArialMT-2c" d="M 597 0 
L 597 4581 
L 1203 4581 
L 1203 0 
L 597 0 
z
" transform="scale(0.015625)"/>
      <path id="ArialMT-27" d="M 494 0 
L 494 4581 
L 2072 4581 
Q 2606 4581 2888 4516 
Q 3281 4425 3559 4188 
Q 3922 3881 4101 3404 
Q 4281 2928 4281 2316 
Q 4281 1794 4159 1391 
Q 4038 988 3847 723 
Q 3656 459 3429 307 
Q 3203 156 2883 78 
Q 2563 0 2147 0 
L 494 0 
z
M 1100 541 
L 2078 541 
Q 2531 541 2789 625 
Q 3047 709 3200 863 
Q 3416 1078 3536 1442 
Q 3656 1806 3656 2325 
Q 3656 3044 3420 3430 
Q 3184 3816 2847 3947 
Q 2603 4041 2063 4041 
L 1100 4041 
L 1100 541 
z
" transform="scale(0.015625)"/>
      <path id="ArialMT-58" d="M 2597 0 
L 2597 488 
Q 2209 -75 1544 -75 
Q 1250 -75 995 37 
Q 741 150 617 320 
Q 494 491 444 738 
Q 409 903 409 1263 
L 409 3319 
L 972 3319 
L 972 1478 
Q 972 1038 1006 884 
Q 1059 663 1231 536 
Q 1403 409 1656 409 
Q 1909 409 2131 539 
Q 2353 669 2445 892 
Q 2538 1116 2538 1541 
L 2538 3319 
L 3100 3319 
L 3100 0 
L 2597 0 
z
" transform="scale(0.015625)"/>
      <path id="ArialMT-4a" d="M 319 -275 
L 866 -356 
Q 900 -609 1056 -725 
Q 1266 -881 1628 -881 
Q 2019 -881 2231 -725 
Q 2444 -569 2519 -288 
Q 2563 -116 2559 434 
Q 2191 0 1641 0 
Q 956 0 581 494 
Q 206 988 206 1678 
Q 206 2153 378 2554 
Q 550 2956 876 3175 
Q 1203 3394 1644 3394 
Q 2231 3394 2613 2919 
L 2613 3319 
L 3131 3319 
L 3131 450 
Q 3131 -325 2973 -648 
Q 2816 -972 2473 -1159 
Q 2131 -1347 1631 -1347 
Q 1038 -1347 672 -1080 
Q 306 -813 319 -275 
z
M 784 1719 
Q 784 1066 1043 766 
Q 1303 466 1694 466 
Q 2081 466 2343 764 
Q 2606 1063 2606 1700 
Q 2606 2309 2336 2618 
Q 2066 2928 1684 2928 
Q 1309 2928 1046 2623 
Q 784 2319 784 1719 
z
" transform="scale(0.015625)"/>
     </defs>
     <use xlink:href="#ArialMT-26"/>
     <use xlink:href="#ArialMT-32" transform="translate(72.21875 0)"/>
     <use xlink:href="#ArialMT-39" transform="translate(150 0)"/>
     <use xlink:href="#ArialMT-2c" transform="translate(216.703125 0)"/>
     <use xlink:href="#ArialMT-27" transform="translate(244.484375 0)"/>
     <use xlink:href="#ArialMT-3" transform="translate(316.703125 0)"/>
     <use xlink:href="#ArialMT-57" transform="translate(344.484375 0)"/>
     <use xlink:href="#ArialMT-55" transform="translate(372.265625 0)"/>
     <use xlink:href="#ArialMT-52" transform="translate(405.5625 0)"/>
     <use xlink:href="#ArialMT-58" transform="translate(461.171875 0)"/>
     <use xlink:href="#ArialMT-4a" transform="translate(516.78125 0)"/>
     <use xlink:href="#ArialMT-4b" transform="translate(572.390625 0)"/>
    </g>
   </g>
   <g id="text_16">
    <!-- NYC yellow-taxi monthly volume, 2015-2024 -->
    <g style="fill: #262626" transform="translate(245.704582 16.809961) scale(0.132 -0.132)">
     <defs>
      <path id="ArialMT-31" d="M 488 0 
L 488 4581 
L 1109 4581 
L 3516 984 
L 3516 4581 
L 4097 4581 
L 4097 0 
L 3475 0 
L 1069 3600 
L 1069 0 
L 488 0 
z
" transform="scale(0.015625)"/>
      <path id="ArialMT-3c" d="M 1784 0 
L 1784 1941 
L 19 4581 
L 756 4581 
L 1659 3200 
Q 1909 2813 2125 2425 
Q 2331 2784 2625 3234 
L 3513 4581 
L 4219 4581 
L 2391 1941 
L 2391 0 
L 1784 0 
z
" transform="scale(0.015625)"/>
      <path id="ArialMT-5a" d="M 1034 0 
L 19 3319 
L 600 3319 
L 1128 1403 
L 1325 691 
Q 1338 744 1497 1375 
L 2025 3319 
L 2603 3319 
L 3100 1394 
L 3266 759 
L 3456 1400 
L 4025 3319 
L 4572 3319 
L 3534 0 
L 2950 0 
L 2422 1988 
L 2294 2553 
L 1622 0 
L 1034 0 
z
" transform="scale(0.015625)"/>
      <path id="ArialMT-10" d="M 203 1375 
L 203 1941 
L 1931 1941 
L 1931 1375 
L 203 1375 
z
" transform="scale(0.015625)"/>
      <path id="ArialMT-5b" d="M 47 0 
L 1259 1725 
L 138 3319 
L 841 3319 
L 1350 2541 
Q 1494 2319 1581 2169 
Q 1719 2375 1834 2534 
L 2394 3319 
L 3066 3319 
L 1919 1756 
L 3153 0 
L 2463 0 
L 1781 1031 
L 1600 1309 
L 728 0 
L 47 0 
z
" transform="scale(0.015625)"/>
      <path id="ArialMT-59" d="M 1344 0 
L 81 3319 
L 675 3319 
L 1388 1331 
Q 1503 1009 1600 663 
Q 1675 925 1809 1294 
L 2547 3319 
L 3125 3319 
L 1869 0 
L 1344 0 
z
" transform="scale(0.015625)"/>
      <path id="ArialMT-f" d="M 569 0 
L 569 641 
L 1209 641 
L 1209 0 
Q 1209 -353 1084 -570 
Q 959 -788 688 -906 
L 531 -666 
Q 709 -588 793 -436 
Q 878 -284 888 0 
L 569 0 
z
" transform="scale(0.015625)"/>
      <path id="ArialMT-18" d="M 266 1200 
L 856 1250 
Q 922 819 1161 601 
Q 1400 384 1738 384 
Q 2144 384 2425 690 
Q 2706 997 2706 1503 
Q 2706 1984 2436 2262 
Q 2166 2541 1728 2541 
Q 1456 2541 1237 2417 
Q 1019 2294 894 2097 
L 366 2166 
L 809 4519 
L 3088 4519 
L 3088 3981 
L 1259 3981 
L 1013 2750 
Q 1425 3038 1878 3038 
Q 2478 3038 2890 2622 
Q 3303 2206 3303 1553 
Q 3303 931 2941 478 
Q 2500 -78 1738 -78 
Q 1113 -78 717 272 
Q 322 622 266 1200 
z
" transform="scale(0.015625)"/>
     </defs>
     <use xlink:href="#ArialMT-31"/>
     <use xlink:href="#ArialMT-3c" transform="translate(72.21875 0)"/>
     <use xlink:href="#ArialMT-26" transform="translate(138.921875 0)"/>
     <use xlink:href="#ArialMT-3" transform="translate(211.140625 0)"/>
     <use xlink:href="#ArialMT-5c" transform="translate(238.921875 0)"/>
     <use xlink:href="#ArialMT-48" transform="translate(288.921875 0)"/>
     <use xlink:href="#ArialMT-4f" transform="translate(344.53125 0)"/>
     <use xlink:href="#ArialMT-4f" transform="translate(366.75 0)"/>
     <use xlink:href="#ArialMT-52" transform="translate(388.96875 0)"/>
     <use xlink:href="#ArialMT-5a" transform="translate(444.578125 0)"/>
     <use xlink:href="#ArialMT-10" transform="translate(516.796875 0)"/>
     <use xlink:href="#ArialMT-57" transform="translate(550.09375 0)"/>
     <use xlink:href="#ArialMT-44" transform="translate(577.875 0)"/>
     <use xlink:href="#ArialMT-5b" transform="translate(633.484375 0)"/>
     <use xlink:href="#ArialMT-4c" transform="translate(683.484375 0)"/>
     <use xlink:href="#ArialMT-3" transform="translate(705.703125 0)"/>
     <use xlink:href="#ArialMT-50" transform="translate(733.484375 0)"/>
     <use xlink:href="#ArialMT-52" transform="translate(816.78125 0)"/>
     <use xlink:href="#ArialMT-51" transform="translate(872.390625 0)"/>
     <use xlink:href="#ArialMT-57" transform="translate(928 0)"/>
     <use xlink:href="#ArialMT-4b" transform="translate(955.78125 0)"/>
     <use xlink:href="#ArialMT-4f" transform="translate(1011.390625 0)"/>
     <use xlink:href="#ArialMT-5c" transform="translate(1033.609375 0)"/>
     <use xlink:href="#ArialMT-3" transform="translate(1083.609375 0)"/>
     <use xlink:href="#ArialMT-59" transform="translate(1111.390625 0)"/>
     <use xlink:href="#ArialMT-52" transform="translate(1161.390625 0)"/>
     <use xlink:href="#ArialMT-4f" transform="translate(1217 0)"/>
     <use xlink:href="#ArialMT-58" transform="translate(1239.21875 0)"/>
     <use xlink:href="#ArialMT-50" transform="translate(1294.828125 0)"/>
     <use xlink:href="#ArialMT-48" transform="translate(1378.125 0)"/>
     <use xlink:href="#ArialMT-f" transform="translate(1433.734375 0)"/>
     <use xlink:href="#ArialMT-3" transform="translate(1461.515625 0)"/>
     <use xlink:href="#ArialMT-15" transform="translate(1489.296875 0)"/>
     <use xlink:href="#ArialMT-13" transform="translate(1544.90625 0)"/>
     <use xlink:href="#ArialMT-14" transform="translate(1600.515625 0)"/>
     <use xlink:href="#ArialMT-18" transform="translate(1656.125 0)"/>
     <use xlink:href="#ArialMT-10" transform="translate(1711.734375 0)"/>
     <use xlink:href="#ArialMT-15" transform="translate(1745.03125 0)"/>
     <use xlink:href="#ArialMT-13" transform="translate(1800.640625 0)"/>
     <use xlink:href="#ArialMT-15" transform="translate(1856.25 0)"/>
     <use xlink:href="#ArialMT-17" transform="translate(1911.859375 0)"/>
    </g>
   </g>
   <g id="legend_1">
    <g id="patch_9">
     <path d="M 618.241113 42.961523 
L 704.05752 42.961523 
Q 705.85752 42.961523 705.85752 41.161523 
L 705.85752 29.109961 
Q 705.85752 27.309961 704.05752 27.309961 
L 618.241113 27.309961 
Q 616.441113 27.309961 616.441113 29.109961 
L 616.441113 41.161523 
Q 616.441113 42.961523 618.241113 42.961523 
z
" style="fill: #ffffff; opacity: 0.8; stroke: #cccccc; stroke-linejoin: miter"/>
    </g>
    <g id="patch_10">
     <path d="M 620.041113 37.467305 
L 638.041113 37.467305 
L 638.041113 31.167305 
L 620.041113 31.167305 
z
" style="fill: #fde0dd; opacity: 0.7; stroke: #fde0dd; stroke-linejoin: miter"/>
    </g>
    <g id="text_17">
     <!-- 2020 (COVID) -->
     <g style="fill: #262626" transform="translate(645.241113 37.467305) scale(0.09 -0.09)">
      <use xlink:href="#ArialMT-15"/>
      <use xlink:href="#ArialMT-13" transform="translate(55.609375 0)"/>
      <use xlink:href="#ArialMT-15" transform="translate(111.21875 0)"/>
      <use xlink:href="#ArialMT-13" transform="translate(166.828125 0)"/>
      <use xlink:href="#ArialMT-3" transform="translate(222.4375 0)"/>
      <use xlink:href="#ArialMT-b" transform="translate(250.21875 0)"/>
      <use xlink:href="#ArialMT-26" transform="translate(283.515625 0)"/>
      <use xlink:href="#ArialMT-32" transform="translate(355.734375 0)"/>
      <use xlink:href="#ArialMT-39" transform="translate(433.515625 0)"/>
      <use xlink:href="#ArialMT-2c" transform="translate(500.21875 0)"/>
      <use xlink:href="#ArialMT-27" transform="translate(528 0)"/>
      <use xlink:href="#ArialMT-c" transform="translate(600.21875 0)"/>
     </g>
    </g>
   </g>
  </g>
 </g>
 <defs>
  <clipPath id="p638c0534da">
   <rect x="40.75752" y="22.809961" width="669.6" height="249.48"/>
  </clipPath>
 </defs>
</svg>
