<?xml version="1.0" encoding="utf-8" standalone="no"?>
<!DOCTYPE svg PUBLIC "-//W3C//DTD SVG 1.1//EN"
  "http://www.w3.org/Graphics/SVG/1.1/DTD/svg11.dtd">
<svg xmlns:xlink="http://www.w3.org/1999/xlink" width="553.213457pt" height="311.13666pt" viewBox="0 0 553.213457 311.13666" xmlns="http://www.w3.org/2000/svg" version="1.1">
 <metadata>
  <rdf:RDF xmlns:dc="http://purl.org/dc/elements/1.1/" xmlns:cc="http://creativecommons.org/ns#" xmlns:rdf="http://www.w3.org/1999/02/22-rdf-syntax-ns#">
   <cc:Work>
    <dc:type rdf:resource="http://purl.org/dc/dcmitype/StillImage"/>
    <dc:date>2026-06-18T21:18:05.810248</dc:date>
    <dc:format>image/svg+xml</dc:format>
    <dc:creator>
     <cc:Agent>
      <dc:title>Matplotlib v3.11.0, https://matplotlib.org/</dc:title>
     </cc:Agent>
    </dc:creator>
   </cc:Work>
  </rdf:RDF>
 </metadata>
 <defs>
  <style type="text/css">*{stroke-linejoin: round; stroke-linecap: butt}</style>
 </defs>
 <g id="figure_1">
  <g id="patch_1">
   <path d="M 0 311.13666 
L 553.213457 311.13666 
L 553.213457 0 
L 0 0 
z
" style="fill: #ffffff"/>
  </g>
  <g id="axes_1">
   <g id="patch_2">
    <path d="M 43.813457 272.289961 
L 546.013457 272.289961 
L 546.013457 22.809961 
L 43.813457 22.809961 
z
" style="fill: #ffffff"/>
   </g>
   <g id="matplotlib.axis_1">
    <g id="xtick_1">
     <g id="line2d_1">
      <path d="M 66.64073 272.289961 
L 66.64073 22.809961 
" clip-path="url(#pfd0c0ddcca)" style="fill: none; stroke: #cccccc; stroke-width: 0.8; stroke-linecap: round"/>
     </g>
     <g id="text_1">
      <!-- 2016 -->
      <g style="fill: #262626" transform="translate(54.406667 287.298262) scale(0.11 -0.11)">
       <defs>
        <path id="ArialMT-15" d="M 3222 541 
L 3222 0 
L 194 0 
Q 188 203 259 391 
Q 375 700 629 1000 
Q 884 1300 1366 1694 
Q 2113 2306 2375 2664 
Q 2638 3022 2638 3341 
Q 2638 3675 2398 3904 
Q 2159 4134 1775 4134 
Q 1369 4134 1125 3890 
Q 881 3647 878 3216 
L 300 3275 
Q 359 3922 746 4261 
Q 1134 4600 1788 4600 
Q 2447 4600 2831 4234 
Q 3216 3869 3216 3328 
Q 3216 3053 3103 2787 
Q 2991 2522 2730 2228 
Q 2469 1934 1863 1422 
Q 1356 997 1212 845 
Q 1069 694 975 541 
L 3222 541 
z
" transform="scale(0.015625)"/>
        <path id="ArialMT-13" d="M 266 2259 
Q 266 3072 433 3567 
Q 600 4063 929 4331 
Q 1259 4600 1759 4600 
Q 2128 4600 2406 4451 
Q 2684 4303 2865 4023 
Q 3047 3744 3150 3342 
Q 3253 2941 3253 2259 
Q 3253 1453 3087 958 
Q 2922 463 2592 192 
Q 2263 -78 1759 -78 
Q 1097 -78 719 397 
Q 266 969 266 2259 
z
M 844 2259 
Q 844 1131 1108 757 
Q 1372 384 1759 384 
Q 2147 384 2411 759 
Q 2675 1134 2675 2259 
Q 2675 3391 2411 3762 
Q 2147 4134 1753 4134 
Q 1366 4134 1134 3806 
Q 844 3388 844 2259 
z
" transform="scale(0.015625)"/>
        <path id="ArialMT-14" d="M 2384 0 
L 1822 0 
L 1822 3584 
Q 1619 3391 1289 3197 
Q 959 3003 697 2906 
L 697 3450 
Q 1169 3672 1522 3987 
Q 1875 4303 2022 4600 
L 2384 4600 
L 2384 0 
z
" transform="scale(0.015625)"/>
        <path id="ArialMT-19" d="M 3184 3459 
L 2625 3416 
Q 2550 3747 2413 3897 
Q 2184 4138 1850 4138 
Q 1581 4138 1378 3988 
Q 1113 3794 959 3422 
Q 806 3050 800 2363 
Q 1003 2672 1297 2822 
Q 1591 2972 1913 2972 
Q 2475 2972 2870 2558 
Q 3266 2144 3266 1488 
Q 3266 1056 3080 686 
Q 2894 316 2569 119 
Q 2244 -78 1831 -78 
Q 1128 -78 684 439 
Q 241 956 241 2144 
Q 241 3472 731 4075 
Q 1159 4600 1884 4600 
Q 2425 4600 2770 4297 
Q 3116 3994 3184 3459 
z
M 888 1484 
Q 888 1194 1011 928 
Q 1134 663 1356 523 
Q 1578 384 1822 384 
Q 2178 384 2434 671 
Q 2691 959 2691 1453 
Q 2691 1928 2437 2201 
Q 2184 2475 1800 2475 
Q 1419 2475 1153 2201 
Q 888 1928 888 1484 
z
" transform="scale(0.015625)"/>
       </defs>
       <use xlink:href="#ArialMT-15"/>
       <use xlink:href="#ArialMT-13" transform="translate(55.609375 0)"/>
       <use xlink:href="#ArialMT-14" transform="translate(111.21875 0)"/>
       <use xlink:href="#ArialMT-19" transform="translate(166.828125 0)"/>
      </g>
     </g>
    </g>
    <g id="xtick_2">
     <g id="line2d_2">
      <path d="M 123.708912 272.289961 
L 123.708912 22.809961 
" clip-path="url(#pfd0c0ddcca)" style="fill: none; stroke: #cccccc; stroke-width: 0.8; stroke-linecap: round"/>
     </g>
     <g id="text_2">
      <!-- 2017 -->
      <g style="fill: #262626" transform="translate(111.474849 287.298262) scale(0.11 -0.11)">
       <defs>
        <path id="ArialMT-1a" d="M 303 3981 
L 303 4522 
L 3269 4522 
L 3269 4084 
Q 2831 3619 2401 2847 
Q 1972 2075 1738 1259 
Q 1569 684 1522 0 
L 944 0 
Q 953 541 1156 1306 
Q 1359 2072 1739 2783 
Q 2119 3494 2547 3981 
L 303 3981 
z
" transform="scale(0.015625)"/>
       </defs>
       <use xlink:href="#ArialMT-15"/>
       <use xlink:href="#ArialMT-13" transform="translate(55.609375 0)"/>
       <use xlink:href="#ArialMT-14" transform="translate(111.21875 0)"/>
       <use xlink:href="#ArialMT-1a" transform="translate(166.828125 0)"/>
      </g>
     </g>
    </g>
    <g id="xtick_3">
     <g id="line2d_3">
      <path d="M 180.777093 272.289961 
L 180.777093 22.809961 
" clip-path="url(#pfd0c0ddcca)" style="fill: none; stroke: #cccccc; stroke-width: 0.8; stroke-linecap: round"/>
     </g>
     <g id="text_3">
      <!-- 2018 -->
      <g style="fill: #262626" transform="translate(168.543031 287.298262) scale(0.11 -0.11)">
       <defs>
        <path id="ArialMT-1b" d="M 1131 2484 
Q 781 2613 612 2850 
Q 444 3088 444 3419 
Q 444 3919 803 4259 
Q 1163 4600 1759 4600 
Q 2359 4600 2725 4251 
Q 3091 3903 3091 3403 
Q 3091 3084 2923 2848 
Q 2756 2613 2416 2484 
Q 2838 2347 3058 2040 
Q 3278 1734 3278 1309 
Q 3278 722 2862 322 
Q 2447 -78 1769 -78 
Q 1091 -78 675 323 
Q 259 725 259 1325 
Q 259 1772 486 2073 
Q 713 2375 1131 2484 
z
M 1019 3438 
Q 1019 3113 1228 2906 
Q 1438 2700 1772 2700 
Q 2097 2700 2305 2904 
Q 2513 3109 2513 3406 
Q 2513 3716 2298 3927 
Q 2084 4138 1766 4138 
Q 1444 4138 1231 3931 
Q 1019 3725 1019 3438 
z
M 838 1322 
Q 838 1081 952 856 
Q 1066 631 1291 507 
Q 1516 384 1775 384 
Q 2178 384 2440 643 
Q 2703 903 2703 1303 
Q 2703 1709 2433 1975 
Q 2163 2241 1756 2241 
Q 1359 2241 1098 1978 
Q 838 1716 838 1322 
z
" transform="scale(0.015625)"/>
       </defs>
       <use xlink:href="#ArialMT-15"/>
       <use xlink:href="#ArialMT-13" transform="translate(55.609375 0)"/>
       <use xlink:href="#ArialMT-14" transform="translate(111.21875 0)"/>
       <use xlink:href="#ArialMT-1b" transform="translate(166.828125 0)"/>
      </g>
     </g>
    </g>
    <g id="xtick_4">
     <g id="line2d_4">
      <path d="M 237.845275 272.289961 
L 237.845275 22.809961 
" clip-path="url(#pfd0c0ddcca)" style="fill: none; stroke: #cccccc; stroke-width: 0.8; stroke-linecap: round"/>
     </g>
     <g id="text_4">
      <!-- 2019 -->
      <g style="fill: #262626" transform="translate(225.611213 287.298262) scale(0.11 -0.11)">
       <defs>
        <path id="ArialMT-1c" d="M 350 1059 
L 891 1109 
Q 959 728 1153 556 
Q 1347 384 1650 384 
Q 1909 384 2104 503 
Q 2300 622 2425 820 
Q 2550 1019 2634 1356 
Q 2719 1694 2719 2044 
Q 2719 2081 2716 2156 
Q 2547 1888 2255 1720 
Q 1963 1553 1622 1553 
Q 1053 1553 659 1965 
Q 266 2378 266 3053 
Q 266 3750 677 4175 
Q 1088 4600 1706 4600 
Q 2153 4600 2523 4359 
Q 2894 4119 3086 3673 
Q 3278 3228 3278 2384 
Q 3278 1506 3087 986 
Q 2897 466 2520 194 
Q 2144 -78 1638 -78 
Q 1100 -78 759 220 
Q 419 519 350 1059 
z
M 2653 3081 
Q 2653 3566 2395 3850 
Q 2138 4134 1775 4134 
Q 1400 4134 1122 3828 
Q 844 3522 844 3034 
Q 844 2597 1108 2323 
Q 1372 2050 1759 2050 
Q 2150 2050 2401 2323 
Q 2653 2597 2653 3081 
z
" transform="scale(0.015625)"/>
       </defs>
       <use xlink:href="#ArialMT-15"/>
       <use xlink:href="#ArialMT-13" transform="translate(55.609375 0)"/>
       <use xlink:href="#ArialMT-14" transform="translate(111.21875 0)"/>
       <use xlink:href="#ArialMT-1c" transform="translate(166.828125 0)"/>
      </g>
     </g>
    </g>
    <g id="xtick_5">
     <g id="line2d_5">
      <path d="M 294.913457 272.289961 
L 294.913457 22.809961 
" clip-path="url(#pfd0c0ddcca)" style="fill: none; stroke: #cccccc; stroke-width: 0.8; stroke-linecap: round"/>
     </g>
     <g id="text_5">
      <!-- 2020 -->
      <g style="fill: #262626" transform="translate(282.679395 287.298262) scale(0.11 -0.11)">
       <use xlink:href="#ArialMT-15"/>
       <use xlink:href="#ArialMT-13" transform="translate(55.609375 0)"/>
       <use xlink:href="#ArialMT-15" transform="translate(111.21875 0)"/>
       <use xlink:href="#ArialMT-13" transform="translate(166.828125 0)"/>
      </g>
     </g>
    </g>
    <g id="xtick_6">
     <g id="line2d_6">
      <path d="M 351.981639 272.289961 
L 351.981639 22.809961 
" clip-path="url(#pfd0c0ddcca)" style="fill: none; stroke: #cccccc; stroke-width: 0.8; stroke-linecap: round"/>
     </g>
     <g id="text_6">
      <!-- 2021 -->
      <g style="fill: #262626" transform="translate(339.747576 287.298262) scale(0.11 -0.11)">
       <use xlink:href="#ArialMT-15"/>
       <use xlink:href="#ArialMT-13" transform="translate(55.609375 0)"/>
       <use xlink:href="#ArialMT-15" transform="translate(111.21875 0)"/>
       <use xlink:href="#ArialMT-14" transform="translate(166.828125 0)"/>
      </g>
     </g>
    </g>
    <g id="xtick_7">
     <g id="line2d_7">
      <path d="M 409.049821 272.289961 
L 409.049821 22.809961 
" clip-path="url(#pfd0c0ddcca)" style="fill: none; stroke: #cccccc; stroke-width: 0.8; stroke-linecap: round"/>
     </g>
     <g id="text_7">
      <!-- 2022 -->
      <g style="fill: #262626" transform="translate(396.815758 287.298262) scale(0.11 -0.11)">
       <use xlink:href="#ArialMT-15"/>
       <use xlink:href="#ArialMT-13" transform="translate(55.609375 0)"/>
       <use xlink:href="#ArialMT-15" transform="translate(111.21875 0)"/>
       <use xlink:href="#ArialMT-15" transform="translate(166.828125 0)"/>
      </g>
     </g>
    </g>
    <g id="xtick_8">
     <g id="line2d_8">
      <path d="M 466.118002 272.289961 
L 466.118002 22.809961 
" clip-path="url(#pfd0c0ddcca)" style="fill: none; stroke: #cccccc; stroke-width: 0.8; stroke-linecap: round"/>
     </g>
     <g id="text_8">
      <!-- 2023 -->
      <g style="fill: #262626" transform="translate(453.88394 287.298262) scale(0.11 -0.11)">
       <defs>
        <path id="ArialMT-16" d="M 269 1209 
L 831 1284 
Q 928 806 1161 595 
Q 1394 384 1728 384 
Q 2125 384 2398 659 
Q 2672 934 2672 1341 
Q 2672 1728 2419 1979 
Q 2166 2231 1775 2231 
Q 1616 2231 1378 2169 
L 1441 2663 
Q 1497 2656 1531 2656 
Q 1891 2656 2178 2843 
Q 2466 3031 2466 3422 
Q 2466 3731 2256 3934 
Q 2047 4138 1716 4138 
Q 1388 4138 1169 3931 
Q 950 3725 888 3313 
L 325 3413 
Q 428 3978 793 4289 
Q 1159 4600 1703 4600 
Q 2078 4600 2393 4439 
Q 2709 4278 2876 4000 
Q 3044 3722 3044 3409 
Q 3044 3113 2884 2869 
Q 2725 2625 2413 2481 
Q 2819 2388 3044 2092 
Q 3269 1797 3269 1353 
Q 3269 753 2831 336 
Q 2394 -81 1725 -81 
Q 1122 -81 723 278 
Q 325 638 269 1209 
z
" transform="scale(0.015625)"/>
       </defs>
       <use xlink:href="#ArialMT-15"/>
       <use xlink:href="#ArialMT-13" transform="translate(55.609375 0)"/>
       <use xlink:href="#ArialMT-15" transform="translate(111.21875 0)"/>
       <use xlink:href="#ArialMT-16" transform="translate(166.828125 0)"/>
      </g>
     </g>
    </g>
    <g id="xtick_9">
     <g id="line2d_9">
      <path d="M 523.186184 272.289961 
L 523.186184 22.809961 
" clip-path="url(#pfd0c0ddcca)" style="fill: none; stroke: #cccccc; stroke-width: 0.8; stroke-linecap: round"/>
     </g>
     <g id="text_9">
      <!-- 2024 -->
      <g style="fill: #262626" transform="translate(510.952122 287.298262) scale(0.11 -0.11)">
       <defs>
        <path id="ArialMT-17" d="M 2069 0 
L 2069 1097 
L 81 1097 
L 81 1613 
L 2172 4581 
L 2631 4581 
L 2631 1613 
L 3250 1613 
L 3250 1097 
L 2631 1097 
L 2631 0 
L 2069 0 
z
M 2069 1613 
L 2069 3678 
L 634 1613 
L 2069 1613 
z
" transform="scale(0.015625)"/>
       </defs>
       <use xlink:href="#ArialMT-15"/>
       <use xlink:href="#ArialMT-13" transform="translate(55.609375 0)"/>
       <use xlink:href="#ArialMT-15" transform="translate(111.21875 0)"/>
       <use xlink:href="#ArialMT-17" transform="translate(166.828125 0)"/>
      </g>
     </g>
    </g>
    <g id="text_10">
     <!-- year boundary -->
     <g style="fill: #262626" transform="translate(259.754707 301.621504) scale(0.11 -0.11)">
      <defs>
       <path id="ArialMT-5c" d="M 397 -1278 
L 334 -750 
Q 519 -800 656 -800 
Q 844 -800 956 -737 
Q 1069 -675 1141 -563 
Q 1194 -478 1313 -144 
Q 1328 -97 1363 -6 
L 103 3319 
L 709 3319 
L 1400 1397 
Q 1534 1031 1641 628 
Q 1738 1016 1872 1384 
L 2581 3319 
L 3144 3319 
L 1881 -56 
Q 1678 -603 1566 -809 
Q 1416 -1088 1222 -1217 
Q 1028 -1347 759 -1347 
Q 597 -1347 397 -1278 
z
" transform="scale(0.015625)"/>
       <path id="ArialMT-48" d="M 2694 1069 
L 3275 997 
Q 3138 488 2766 206 
Q 2394 -75 1816 -75 
Q 1088 -75 661 373 
Q 234 822 234 1631 
Q 234 2469 665 2931 
Q 1097 3394 1784 3394 
Q 2450 3394 2872 2941 
Q 3294 2488 3294 1666 
Q 3294 1616 3291 1516 
L 816 1516 
Q 847 969 1125 678 
Q 1403 388 1819 388 
Q 2128 388 2347 550 
Q 2566 713 2694 1069 
z
M 847 1978 
L 2700 1978 
Q 2663 2397 2488 2606 
Q 2219 2931 1791 2931 
Q 1403 2931 1139 2672 
Q 875 2413 847 1978 
z
" transform="scale(0.015625)"/>
       <path id="ArialMT-44" d="M 2588 409 
Q 2275 144 1986 34 
Q 1697 -75 1366 -75 
Q 819 -75 525 192 
Q 231 459 231 875 
Q 231 1119 342 1320 
Q 453 1522 633 1644 
Q 813 1766 1038 1828 
Q 1203 1872 1538 1913 
Q 2219 1994 2541 2106 
Q 2544 2222 2544 2253 
Q 2544 2597 2384 2738 
Q 2169 2928 1744 2928 
Q 1347 2928 1158 2789 
Q 969 2650 878 2297 
L 328 2372 
Q 403 2725 575 2942 
Q 747 3159 1072 3276 
Q 1397 3394 1825 3394 
Q 2250 3394 2515 3294 
Q 2781 3194 2906 3042 
Q 3031 2891 3081 2659 
Q 3109 2516 3109 2141 
L 3109 1391 
Q 3109 606 3145 398 
Q 3181 191 3288 0 
L 2700 0 
Q 2613 175 2588 409 
z
M 2541 1666 
Q 2234 1541 1622 1453 
Q 1275 1403 1131 1340 
Q 988 1278 909 1158 
Q 831 1038 831 891 
Q 831 666 1001 516 
Q 1172 366 1500 366 
Q 1825 366 2078 508 
Q 2331 650 2450 897 
Q 2541 1088 2541 1459 
L 2541 1666 
z
" transform="scale(0.015625)"/>
       <path id="ArialMT-55" d="M 416 0 
L 416 3319 
L 922 3319 
L 922 2816 
Q 1116 3169 1280 3281 
Q 1444 3394 1641 3394 
Q 1925 3394 2219 3213 
L 2025 2691 
Q 1819 2813 1613 2813 
Q 1428 2813 1281 2702 
Q 1134 2591 1072 2394 
Q 978 2094 978 1738 
L 978 0 
L 416 0 
z
" transform="scale(0.015625)"/>
       <path id="ArialMT-3" transform="scale(0.015625)"/>
       <path id="ArialMT-45" d="M 941 0 
L 419 0 
L 419 4581 
L 981 4581 
L 981 2947 
Q 1338 3394 1891 3394 
Q 2197 3394 2470 3270 
Q 2744 3147 2920 2923 
Q 3097 2700 3197 2384 
Q 3297 2069 3297 1709 
Q 3297 856 2875 390 
Q 2453 -75 1863 -75 
Q 1275 -75 941 416 
L 941 0 
z
M 934 1684 
Q 934 1088 1097 822 
Q 1363 388 1816 388 
Q 2184 388 2453 708 
Q 2722 1028 2722 1663 
Q 2722 2313 2464 2622 
Q 2206 2931 1841 2931 
Q 1472 2931 1203 2611 
Q 934 2291 934 1684 
z
" transform="scale(0.015625)"/>
       <path id="ArialMT-52" d="M 213 1659 
Q 213 2581 725 3025 
Q 1153 3394 1769 3394 
Q 2453 3394 2887 2945 
Q 3322 2497 3322 1706 
Q 3322 1066 3130 698 
Q 2938 331 2570 128 
Q 2203 -75 1769 -75 
Q 1072 -75 642 372 
Q 213 819 213 1659 
z
M 791 1659 
Q 791 1022 1069 705 
Q 1347 388 1769 388 
Q 2188 388 2466 706 
Q 2744 1025 2744 1678 
Q 2744 2294 2464 2611 
Q 2184 2928 1769 2928 
Q 1347 2928 1069 2612 
Q 791 2297 791 1659 
z
" transform="scale(0.015625)"/>
       <path id="ArialMT-58" d="M 2597 0 
L 2597 488 
Q 2209 -75 1544 -75 
Q 1250 -75 995 37 
Q 741 150 617 320 
Q 494 491 444 738 
Q 409 903 409 1263 
L 409 3319 
L 972 3319 
L 972 1478 
Q 972 1038 1006 884 
Q 1059 663 1231 536 
Q 1403 409 1656 409 
Q 1909 409 2131 539 
Q 2353 669 2445 892 
Q 2538 1116 2538 1541 
L 2538 3319 
L 3100 3319 
L 3100 0 
L 2597 0 
z
" transform="scale(0.015625)"/>
       <path id="ArialMT-51" d="M 422 0 
L 422 3319 
L 928 3319 
L 928 2847 
Q 1294 3394 1984 3394 
Q 2284 3394 2536 3286 
Q 2788 3178 2913 3003 
Q 3038 2828 3088 2588 
Q 3119 2431 3119 2041 
L 3119 0 
L 2556 0 
L 2556 2019 
Q 2556 2363 2490 2533 
Q 2425 2703 2258 2804 
Q 2091 2906 1866 2906 
Q 1506 2906 1245 2678 
Q 984 2450 984 1813 
L 984 0 
L 422 0 
z
" transform="scale(0.015625)"/>
       <path id="ArialMT-47" d="M 2575 0 
L 2575 419 
Q 2259 -75 1647 -75 
Q 1250 -75 917 144 
Q 584 363 401 755 
Q 219 1147 219 1656 
Q 219 2153 384 2558 
Q 550 2963 881 3178 
Q 1213 3394 1622 3394 
Q 1922 3394 2156 3267 
Q 2391 3141 2538 2938 
L 2538 4581 
L 3097 4581 
L 3097 0 
L 2575 0 
z
M 797 1656 
Q 797 1019 1065 703 
Q 1334 388 1700 388 
Q 2069 388 2326 689 
Q 2584 991 2584 1609 
Q 2584 2291 2321 2609 
Q 2059 2928 1675 2928 
Q 1300 2928 1048 2622 
Q 797 2316 797 1656 
z
" transform="scale(0.015625)"/>
      </defs>
      <use xlink:href="#ArialMT-5c"/>
      <use xlink:href="#ArialMT-48" transform="translate(50 0)"/>
      <use xlink:href="#ArialMT-44" transform="translate(105.609375 0)"/>
      <use xlink:href="#ArialMT-55" transform="translate(161.21875 0)"/>
      <use xlink:href="#ArialMT-3" transform="translate(194.515625 0)"/>
      <use xlink:href="#ArialMT-45" transform="translate(222.296875 0)"/>
      <use xlink:href="#ArialMT-52" transform="translate(277.90625 0)"/>
      <use xlink:href="#ArialMT-58" transform="translate(333.515625 0)"/>
      <use xlink:href="#ArialMT-51" transform="translate(389.125 0)"/>
      <use xlink:href="#ArialMT-47" transform="translate(444.734375 0)"/>
      <use xlink:href="#ArialMT-44" transform="translate(500.34375 0)"/>
      <use xlink:href="#ArialMT-55" transform="translate(555.953125 0)"/>
      <use xlink:href="#ArialMT-5c" transform="translate(589.25 0)"/>
     </g>
    </g>
   </g>
   <g id="matplotlib.axis_2">
    <g id="ytick_1">
     <g id="line2d_10">
      <path d="M 43.813457 272.289961 
L 546.013457 272.289961 
" clip-path="url(#pfd0c0ddcca)" style="fill: none; stroke: #cccccc; stroke-width: 0.8; stroke-linecap: round"/>
     </g>
     <g id="text_11">
      <!-- 0.0 -->
      <g style="fill: #262626" transform="translate(21.523457 276.294111) scale(0.11 -0.11)">
       <defs>
        <path id="ArialMT-11" d="M 581 0 
L 581 641 
L 1222 641 
L 1222 0 
L 581 0 
z
" transform="scale(0.015625)"/>
       </defs>
       <use xlink:href="#ArialMT-13"/>
       <use xlink:href="#ArialMT-11" transform="translate(55.609375 0)"/>
       <use xlink:href="#ArialMT-13" transform="translate(83.390625 0)"/>
      </g>
     </g>
    </g>
    <g id="ytick_2">
     <g id="line2d_11">
      <path d="M 43.813457 223.372314 
L 546.013457 223.372314 
" clip-path="url(#pfd0c0ddcca)" style="fill: none; stroke: #cccccc; stroke-width: 0.8; stroke-linecap: round"/>
     </g>
     <g id="text_12">
      <!-- 0.2 -->
      <g style="fill: #262626" transform="translate(21.523457 227.376464) scale(0.11 -0.11)">
       <use xlink:href="#ArialMT-13"/>
       <use xlink:href="#ArialMT-11" transform="translate(55.609375 0)"/>
       <use xlink:href="#ArialMT-15" transform="translate(83.390625 0)"/>
      </g>
     </g>
    </g>
    <g id="ytick_3">
     <g id="line2d_12">
      <path d="M 43.813457 174.454667 
L 546.013457 174.454667 
" clip-path="url(#pfd0c0ddcca)" style="fill: none; stroke: #cccccc; stroke-width: 0.8; stroke-linecap: round"/>
     </g>
     <g id="text_13">
      <!-- 0.4 -->
      <g style="fill: #262626" transform="translate(21.523457 178.458817) scale(0.11 -0.11)">
       <use xlink:href="#ArialMT-13"/>
       <use xlink:href="#ArialMT-11" transform="translate(55.609375 0)"/>
       <use xlink:href="#ArialMT-17" transform="translate(83.390625 0)"/>
      </g>
     </g>
    </g>
    <g id="ytick_4">
     <g id="line2d_13">
      <path d="M 43.813457 125.53702 
L 546.013457 125.53702 
" clip-path="url(#pfd0c0ddcca)" style="fill: none; stroke: #cccccc; stroke-width: 0.8; stroke-linecap: round"/>
     </g>
     <g id="text_14">
      <!-- 0.6 -->
      <g style="fill: #262626" transform="translate(21.523457 129.54117) scale(0.11 -0.11)">
       <use xlink:href="#ArialMT-13"/>
       <use xlink:href="#ArialMT-11" transform="translate(55.609375 0)"/>
       <use xlink:href="#ArialMT-19" transform="translate(83.390625 0)"/>
      </g>
     </g>
    </g>
    <g id="ytick_5">
     <g id="line2d_14">
      <path d="M 43.813457 76.619373 
L 546.013457 76.619373 
" clip-path="url(#pfd0c0ddcca)" style="fill: none; stroke: #cccccc; stroke-width: 0.8; stroke-linecap: round"/>
     </g>
     <g id="text_15">
      <!-- 0.8 -->
      <g style="fill: #262626" transform="translate(21.523457 80.623523) scale(0.11 -0.11)">
       <use xlink:href="#ArialMT-13"/>
       <use xlink:href="#ArialMT-11" transform="translate(55.609375 0)"/>
       <use xlink:href="#ArialMT-1b" transform="translate(83.390625 0)"/>
      </g>
     </g>
    </g>
    <g id="ytick_6">
     <g id="line2d_15">
      <path d="M 43.813457 27.701726 
L 546.013457 27.701726 
" clip-path="url(#pfd0c0ddcca)" style="fill: none; stroke: #cccccc; stroke-width: 0.8; stroke-linecap: round"/>
     </g>
     <g id="text_16">
      <!-- 1.0 -->
      <g style="fill: #262626" transform="translate(21.523457 31.705876) scale(0.11 -0.11)">
       <use xlink:href="#ArialMT-14"/>
       <use xlink:href="#ArialMT-11" transform="translate(55.609375 0)"/>
       <use xlink:href="#ArialMT-13" transform="translate(83.390625 0)"/>
      </g>
     </g>
    </g>
    <g id="text_17">
     <!-- partition agreement -->
     <g style="fill: #262626" transform="translate(15.208301 194.935039) rotate(-90) scale(0.11 -0.11)">
      <defs>
       <path id="ArialMT-53" d="M 422 -1272 
L 422 3319 
L 934 3319 
L 934 2888 
Q 1116 3141 1344 3267 
Q 1572 3394 1897 3394 
Q 2322 3394 2647 3175 
Q 2972 2956 3137 2557 
Q 3303 2159 3303 1684 
Q 3303 1175 3120 767 
Q 2938 359 2589 142 
Q 2241 -75 1856 -75 
Q 1575 -75 1351 44 
Q 1128 163 984 344 
L 984 -1272 
L 422 -1272 
z
M 931 1641 
Q 931 1000 1190 694 
Q 1450 388 1819 388 
Q 2194 388 2461 705 
Q 2728 1022 2728 1688 
Q 2728 2322 2467 2637 
Q 2206 2953 1844 2953 
Q 1484 2953 1207 2617 
Q 931 2281 931 1641 
z
" transform="scale(0.015625)"/>
       <path id="ArialMT-57" d="M 1650 503 
L 1731 6 
Q 1494 -44 1306 -44 
Q 1000 -44 831 53 
Q 663 150 594 308 
Q 525 466 525 972 
L 525 2881 
L 113 2881 
L 113 3319 
L 525 3319 
L 525 4141 
L 1084 4478 
L 1084 3319 
L 1650 3319 
L 1650 2881 
L 1084 2881 
L 1084 941 
Q 1084 700 1114 631 
Q 1144 563 1211 522 
Q 1278 481 1403 481 
Q 1497 481 1650 503 
z
" transform="scale(0.015625)"/>
       <path id="ArialMT-4c" d="M 425 3934 
L 425 4581 
L 988 4581 
L 988 3934 
L 425 3934 
z
M 425 0 
L 425 3319 
L 988 3319 
L 988 0 
L 425 0 
z
" transform="scale(0.015625)"/>
       <path id="ArialMT-4a" d="M 319 -275 
L 866 -356 
Q 900 -609 1056 -725 
Q 1266 -881 1628 -881 
Q 2019 -881 2231 -725 
Q 2444 -569 2519 -288 
Q 2563 -116 2559 434 
Q 2191 0 1641 0 
Q 956 0 581 494 
Q 206 988 206 1678 
Q 206 2153 378 2554 
Q 550 2956 876 3175 
Q 1203 3394 1644 3394 
Q 2231 3394 2613 2919 
L 2613 3319 
L 3131 3319 
L 3131 450 
Q 3131 -325 2973 -648 
Q 2816 -972 2473 -1159 
Q 2131 -1347 1631 -1347 
Q 1038 -1347 672 -1080 
Q 306 -813 319 -275 
z
M 784 1719 
Q 784 1066 1043 766 
Q 1303 466 1694 466 
Q 2081 466 2343 764 
Q 2606 1063 2606 1700 
Q 2606 2309 2336 2618 
Q 2066 2928 1684 2928 
Q 1309 2928 1046 2623 
Q 784 2319 784 1719 
z
" transform="scale(0.015625)"/>
       <path id="ArialMT-50" d="M 422 0 
L 422 3319 
L 925 3319 
L 925 2853 
Q 1081 3097 1340 3245 
Q 1600 3394 1931 3394 
Q 2300 3394 2536 3241 
Q 2772 3088 2869 2813 
Q 3263 3394 3894 3394 
Q 4388 3394 4653 3120 
Q 4919 2847 4919 2278 
L 4919 0 
L 4359 0 
L 4359 2091 
Q 4359 2428 4304 2576 
Q 4250 2725 4106 2815 
Q 3963 2906 3769 2906 
Q 3419 2906 3187 2673 
Q 2956 2441 2956 1928 
L 2956 0 
L 2394 0 
L 2394 2156 
Q 2394 2531 2256 2718 
Q 2119 2906 1806 2906 
Q 1569 2906 1367 2781 
Q 1166 2656 1075 2415 
Q 984 2175 984 1722 
L 984 0 
L 422 0 
z
" transform="scale(0.015625)"/>
      </defs>
      <use xlink:href="#ArialMT-53"/>
      <use xlink:href="#ArialMT-44" transform="translate(55.609375 0)"/>
      <use xlink:href="#ArialMT-55" transform="translate(111.21875 0)"/>
      <use xlink:href="#ArialMT-57" transform="translate(144.515625 0)"/>
      <use xlink:href="#ArialMT-4c" transform="translate(172.296875 0)"/>
      <use xlink:href="#ArialMT-57" transform="translate(194.515625 0)"/>
      <use xlink:href="#ArialMT-4c" transform="translate(222.296875 0)"/>
      <use xlink:href="#ArialMT-52" transform="translate(244.515625 0)"/>
      <use xlink:href="#ArialMT-51" transform="translate(300.125 0)"/>
      <use xlink:href="#ArialMT-3" transform="translate(355.734375 0)"/>
      <use xlink:href="#ArialMT-44" transform="translate(383.515625 0)"/>
      <use xlink:href="#ArialMT-4a" transform="translate(439.125 0)"/>
      <use xlink:href="#ArialMT-55" transform="translate(494.734375 0)"/>
      <use xlink:href="#ArialMT-48" transform="translate(528.03125 0)"/>
      <use xlink:href="#ArialMT-48" transform="translate(583.640625 0)"/>
      <use xlink:href="#ArialMT-50" transform="translate(639.25 0)"/>
      <use xlink:href="#ArialMT-48" transform="translate(722.546875 0)"/>
      <use xlink:href="#ArialMT-51" transform="translate(778.15625 0)"/>
      <use xlink:href="#ArialMT-57" transform="translate(833.765625 0)"/>
     </g>
    </g>
   </g>
   <g id="patch_3">
    <path d="M 272.086184 272.289961 
L 317.74073 272.289961 
L 317.74073 22.809961 
L 272.086184 22.809961 
z
" clip-path="url(#pfd0c0ddcca)" style="fill: #fde0dd; opacity: 0.7; stroke: #fde0dd; stroke-linejoin: miter"/>
   </g>
   <g id="line2d_16">
    <path d="M 66.64073 141.312961 
L 95.174821 141.312961 
L 95.174821 40.90949 
L 152.243002 40.90949 
L 152.243002 60.525467 
L 209.311184 60.525467 
L 209.311184 49.249949 
L 266.379366 49.249949 
L 266.379366 41.569879 
L 323.447548 41.569879 
L 323.447548 43.306455 
L 380.51573 43.306455 
L 380.51573 48.124843 
L 437.583912 48.124843 
L 437.583912 51.059902 
L 494.652093 51.059902 
L 494.652093 31.248255 
L 523.186184 31.248255 
" clip-path="url(#pfd0c0ddcca)" style="fill: none; stroke: #3182bd; stroke-width: 1.5; stroke-linecap: round"/>
    <defs>
     <path id="mbc813db585" d="M 0 3 
C 0.795609 3 1.55874 2.683901 2.12132 2.12132 
C 2.683901 1.55874 3 0.795609 3 0 
C 3 -0.795609 2.683901 -1.55874 2.12132 -2.12132 
C 1.55874 -2.683901 0.795609 -3 0 -3 
C -0.795609 -3 -1.55874 -2.683901 -2.12132 -2.12132 
C -2.683901 -1.55874 -3 -0.795609 -3 0 
C -3 0.795609 -2.683901 1.55874 -2.12132 2.12132 
C -1.55874 2.683901 -0.795609 3 0 3 
z
" style="stroke: #3182bd"/>
    </defs>
    <g clip-path="url(#pfd0c0ddcca)">
     <use xlink:href="#mbc813db585" x="66.64073" y="141.312961" style="fill: #3182bd; stroke: #3182bd"/>
     <use xlink:href="#mbc813db585" x="123.708912" y="40.90949" style="fill: #3182bd; stroke: #3182bd"/>
     <use xlink:href="#mbc813db585" x="180.777093" y="60.525467" style="fill: #3182bd; stroke: #3182bd"/>
     <use xlink:href="#mbc813db585" x="237.845275" y="49.249949" style="fill: #3182bd; stroke: #3182bd"/>
     <use xlink:href="#mbc813db585" x="294.913457" y="41.569879" style="fill: #3182bd; stroke: #3182bd"/>
     <use xlink:href="#mbc813db585" x="351.981639" y="43.306455" style="fill: #3182bd; stroke: #3182bd"/>
     <use xlink:href="#mbc813db585" x="409.049821" y="48.124843" style="fill: #3182bd; stroke: #3182bd"/>
     <use xlink:href="#mbc813db585" x="466.118002" y="51.059902" style="fill: #3182bd; stroke: #3182bd"/>
     <use xlink:href="#mbc813db585" x="523.186184" y="31.248255" style="fill: #3182bd; stroke: #3182bd"/>
    </g>
   </g>
   <g id="line2d_17">
    <path d="M 66.64073 133.85302 
L 95.174821 133.85302 
L 95.174821 56.612055 
L 152.243002 56.612055 
L 152.243002 65.001432 
L 209.311184 65.001432 
L 209.311184 56.440843 
L 266.379366 56.440843 
L 266.379366 66.028702 
L 323.447548 66.028702 
L 323.447548 64.61009 
L 380.51573 64.61009 
L 380.51573 76.912879 
L 437.583912 76.912879 
L 437.583912 77.548808 
L 494.652093 77.548808 
L 494.652093 34.990455 
L 523.186184 34.990455 
" clip-path="url(#pfd0c0ddcca)" style="fill: none; stroke: #e6550d; stroke-width: 1.5; stroke-linecap: round"/>
    <defs>
     <path id="me09d24064c" d="M -3 3 
L 3 3 
L 3 -3 
L -3 -3 
z
" style="stroke: #e6550d; stroke-linejoin: miter"/>
    </defs>
    <g clip-path="url(#pfd0c0ddcca)">
     <use xlink:href="#me09d24064c" x="66.64073" y="133.85302" style="fill: #e6550d; stroke: #e6550d; stroke-linejoin: miter"/>
     <use xlink:href="#me09d24064c" x="123.708912" y="56.612055" style="fill: #e6550d; stroke: #e6550d; stroke-linejoin: miter"/>
     <use xlink:href="#me09d24064c" x="180.777093" y="65.001432" style="fill: #e6550d; stroke: #e6550d; stroke-linejoin: miter"/>
     <use xlink:href="#me09d24064c" x="237.845275" y="56.440843" style="fill: #e6550d; stroke: #e6550d; stroke-linejoin: miter"/>
     <use xlink:href="#me09d24064c" x="294.913457" y="66.028702" style="fill: #e6550d; stroke: #e6550d; stroke-linejoin: miter"/>
     <use xlink:href="#me09d24064c" x="351.981639" y="64.61009" style="fill: #e6550d; stroke: #e6550d; stroke-linejoin: miter"/>
     <use xlink:href="#me09d24064c" x="409.049821" y="76.912879" style="fill: #e6550d; stroke: #e6550d; stroke-linejoin: miter"/>
     <use xlink:href="#me09d24064c" x="466.118002" y="77.548808" style="fill: #e6550d; stroke: #e6550d; stroke-linejoin: miter"/>
     <use xlink:href="#me09d24064c" x="523.186184" y="34.990455" style="fill: #e6550d; stroke: #e6550d; stroke-linejoin: miter"/>
    </g>
   </g>
   <g id="patch_4">
    <path d="M 43.813457 272.289961 
L 43.813457 22.809961 
" style="fill: none; stroke: #cccccc; stroke-width: 0.8; stroke-linejoin: miter; stroke-linecap: square"/>
   </g>
   <g id="patch_5">
    <path d="M 546.013457 272.289961 
L 546.013457 22.809961 
" style="fill: none; stroke: #cccccc; stroke-width: 0.8; stroke-linejoin: miter; stroke-linecap: square"/>
   </g>
   <g id="patch_6">
    <path d="M 43.813457 272.289961 
L 546.013457 272.289961 
" style="fill: none; stroke: #cccccc; stroke-width: 0.8; stroke-linejoin: miter; stroke-linecap: square"/>
   </g>
   <g id="patch_7">
    <path d="M 43.813457 22.809961 
L 546.013457 22.809961 
" style="fill: none; stroke: #cccccc; stroke-width: 0.8; stroke-linejoin: miter; stroke-linecap: square"/>
   </g>
   <g id="text_18">
    <!-- Community stability across years (Leiden ARI / AMI) -->
    <g style="fill: #262626" transform="translate(143.069113 16.809961) scale(0.132 -0.132)">
     <defs>
      <path id="ArialMT-26" d="M 3763 1606 
L 4369 1453 
Q 4178 706 3683 314 
Q 3188 -78 2472 -78 
Q 1731 -78 1267 223 
Q 803 525 561 1097 
Q 319 1669 319 2325 
Q 319 3041 592 3573 
Q 866 4106 1370 4382 
Q 1875 4659 2481 4659 
Q 3169 4659 3637 4309 
Q 4106 3959 4291 3325 
L 3694 3184 
Q 3534 3684 3231 3912 
Q 2928 4141 2469 4141 
Q 1941 4141 1586 3887 
Q 1231 3634 1087 3207 
Q 944 2781 944 2328 
Q 944 1744 1114 1308 
Q 1284 872 1643 656 
Q 2003 441 2422 441 
Q 2931 441 3284 734 
Q 3638 1028 3763 1606 
z
" transform="scale(0.015625)"/>
      <path id="ArialMT-56" d="M 197 991 
L 753 1078 
Q 800 744 1014 566 
Q 1228 388 1613 388 
Q 2000 388 2187 545 
Q 2375 703 2375 916 
Q 2375 1106 2209 1216 
Q 2094 1291 1634 1406 
Q 1016 1563 777 1677 
Q 538 1791 414 1992 
Q 291 2194 291 2438 
Q 291 2659 392 2848 
Q 494 3038 669 3163 
Q 800 3259 1026 3326 
Q 1253 3394 1513 3394 
Q 1903 3394 2198 3281 
Q 2494 3169 2634 2976 
Q 2775 2784 2828 2463 
L 2278 2388 
Q 2241 2644 2061 2787 
Q 1881 2931 1553 2931 
Q 1166 2931 1000 2803 
Q 834 2675 834 2503 
Q 834 2394 903 2306 
Q 972 2216 1119 2156 
Q 1203 2125 1616 2013 
Q 2213 1853 2448 1751 
Q 2684 1650 2818 1456 
Q 2953 1263 2953 975 
Q 2953 694 2789 445 
Q 2625 197 2315 61 
Q 2006 -75 1616 -75 
Q 969 -75 630 194 
Q 291 463 197 991 
z
" transform="scale(0.015625)"/>
      <path id="ArialMT-4f" d="M 409 0 
L 409 4581 
L 972 4581 
L 972 0 
L 409 0 
z
" transform="scale(0.015625)"/>
      <path id="ArialMT-46" d="M 2588 1216 
L 3141 1144 
Q 3050 572 2676 248 
Q 2303 -75 1759 -75 
Q 1078 -75 664 370 
Q 250 816 250 1647 
Q 250 2184 428 2587 
Q 606 2991 970 3192 
Q 1334 3394 1763 3394 
Q 2303 3394 2647 3120 
Q 2991 2847 3088 2344 
L 2541 2259 
Q 2463 2594 2264 2762 
Q 2066 2931 1784 2931 
Q 1359 2931 1093 2626 
Q 828 2322 828 1663 
Q 828 994 1084 691 
Q 1341 388 1753 388 
Q 2084 388 2306 591 
Q 2528 794 2588 1216 
z
" transform="scale(0.015625)"/>
      <path id="ArialMT-b" d="M 1497 -1347 
Q 1031 -759 709 28 
Q 388 816 388 1659 
Q 388 2403 628 3084 
Q 909 3875 1497 4659 
L 1900 4659 
Q 1522 4009 1400 3731 
Q 1209 3300 1100 2831 
Q 966 2247 966 1656 
Q 966 153 1900 -1347 
L 1497 -1347 
z
" transform="scale(0.015625)"/>
      <path id="ArialMT-2f" d="M 469 0 
L 469 4581 
L 1075 4581 
L 1075 541 
L 3331 541 
L 3331 0 
L 469 0 
z
" transform="scale(0.015625)"/>
      <path id="ArialMT-24" d="M -9 0 
L 1750 4581 
L 2403 4581 
L 4278 0 
L 3588 0 
L 3053 1388 
L 1138 1388 
L 634 0 
L -9 0 
z
M 1313 1881 
L 2866 1881 
L 2388 3150 
Q 2169 3728 2063 4100 
Q 1975 3659 1816 3225 
L 1313 1881 
z
" transform="scale(0.015625)"/>
      <path id="ArialMT-35" d="M 503 0 
L 503 4581 
L 2534 4581 
Q 3147 4581 3465 4457 
Q 3784 4334 3975 4021 
Q 4166 3709 4166 3331 
Q 4166 2844 3850 2509 
Q 3534 2175 2875 2084 
Q 3116 1969 3241 1856 
Q 3506 1613 3744 1247 
L 4541 0 
L 3778 0 
L 3172 953 
Q 2906 1366 2734 1584 
Q 2563 1803 2427 1890 
Q 2291 1978 2150 2013 
Q 2047 2034 1813 2034 
L 1109 2034 
L 1109 0 
L 503 0 
z
M 1109 2559 
L 2413 2559 
Q 2828 2559 3062 2645 
Q 3297 2731 3419 2920 
Q 3541 3109 3541 3331 
Q 3541 3656 3305 3865 
Q 3069 4075 2559 4075 
L 1109 4075 
L 1109 2559 
z
" transform="scale(0.015625)"/>
      <path id="ArialMT-2c" d="M 597 0 
L 597 4581 
L 1203 4581 
L 1203 0 
L 597 0 
z
" transform="scale(0.015625)"/>
      <path id="ArialMT-12" d="M 0 -78 
L 1328 4659 
L 1778 4659 
L 453 -78 
L 0 -78 
z
" transform="scale(0.015625)"/>
      <path id="ArialMT-30" d="M 475 0 
L 475 4581 
L 1388 4581 
L 2472 1338 
Q 2622 884 2691 659 
Q 2769 909 2934 1394 
L 4031 4581 
L 4847 4581 
L 4847 0 
L 4263 0 
L 4263 3834 
L 2931 0 
L 2384 0 
L 1059 3900 
L 1059 0 
L 475 0 
z
" transform="scale(0.015625)"/>
      <path id="ArialMT-c" d="M 791 -1347 
L 388 -1347 
Q 1322 153 1322 1656 
Q 1322 2244 1188 2822 
Q 1081 3291 891 3722 
Q 769 4003 388 4659 
L 791 4659 
Q 1378 3875 1659 3084 
Q 1900 2403 1900 1659 
Q 1900 816 1576 28 
Q 1253 -759 791 -1347 
z
" transform="scale(0.015625)"/>
     </defs>
     <use xlink:href="#ArialMT-26"/>
     <use xlink:href="#ArialMT-52" transform="translate(72.21875 0)"/>
     <use xlink:href="#ArialMT-50" transform="translate(127.828125 0)"/>
     <use xlink:href="#ArialMT-50" transform="translate(211.125 0)"/>
     <use xlink:href="#ArialMT-58" transform="translate(294.421875 0)"/>
     <use xlink:href="#ArialMT-51" transform="translate(350.03125 0)"/>
     <use xlink:href="#ArialMT-4c" transform="translate(405.640625 0)"/>
     <use xlink:href="#ArialMT-57" transform="translate(427.859375 0)"/>
     <use xlink:href="#ArialMT-5c" transform="translate(455.640625 0)"/>
     <use xlink:href="#ArialMT-3" transform="translate(505.640625 0)"/>
     <use xlink:href="#ArialMT-56" transform="translate(533.421875 0)"/>
     <use xlink:href="#ArialMT-57" transform="translate(583.421875 0)"/>
     <use xlink:href="#ArialMT-44" transform="translate(611.203125 0)"/>
     <use xlink:href="#ArialMT-45" transform="translate(666.8125 0)"/>
     <use xlink:href="#ArialMT-4c" transform="translate(722.421875 0)"/>
     <use xlink:href="#ArialMT-4f" transform="translate(744.640625 0)"/>
     <use xlink:href="#ArialMT-4c" transform="translate(766.859375 0)"/>
     <use xlink:href="#ArialMT-57" transform="translate(789.078125 0)"/>
     <use xlink:href="#ArialMT-5c" transform="translate(816.859375 0)"/>
     <use xlink:href="#ArialMT-3" transform="translate(866.859375 0)"/>
     <use xlink:href="#ArialMT-44" transform="translate(894.640625 0)"/>
     <use xlink:href="#ArialMT-46" transform="translate(950.25 0)"/>
     <use xlink:href="#ArialMT-55" transform="translate(1000.25 0)"/>
     <use xlink:href="#ArialMT-52" transform="translate(1033.546875 0)"/>
     <use xlink:href="#ArialMT-56" transform="translate(1089.15625 0)"/>
     <use xlink:href="#ArialMT-56" transform="translate(1139.15625 0)"/>
     <use xlink:href="#ArialMT-3" transform="translate(1189.15625 0)"/>
     <use xlink:href="#ArialMT-5c" transform="translate(1216.9375 0)"/>
     <use xlink:href="#ArialMT-48" transform="translate(1266.9375 0)"/>
     <use xlink:href="#ArialMT-44" transform="translate(1322.546875 0)"/>
     <use xlink:href="#ArialMT-55" transform="translate(1378.15625 0)"/>
     <use xlink:href="#ArialMT-56" transform="translate(1411.453125 0)"/>
     <use xlink:href="#ArialMT-3" transform="translate(1461.453125 0)"/>
     <use xlink:href="#ArialMT-b" transform="translate(1489.234375 0)"/>
     <use xlink:href="#ArialMT-2f" transform="translate(1522.53125 0)"/>
     <use xlink:href="#ArialMT-48" transform="translate(1578.140625 0)"/>
     <use xlink:href="#ArialMT-4c" transform="translate(1633.75 0)"/>
     <use xlink:href="#ArialMT-47" transform="translate(1655.96875 0)"/>
     <use xlink:href="#ArialMT-48" transform="translate(1711.578125 0)"/>
     <use xlink:href="#ArialMT-51" transform="translate(1767.1875 0)"/>
     <use xlink:href="#ArialMT-3" transform="translate(1822.796875 0)"/>
     <use xlink:href="#ArialMT-24" transform="translate(1845.0625 0)"/>
     <use xlink:href="#ArialMT-35" transform="translate(1911.765625 0)"/>
     <use xlink:href="#ArialMT-2c" transform="translate(1983.984375 0)"/>
     <use xlink:href="#ArialMT-3" transform="translate(2011.765625 0)"/>
     <use xlink:href="#ArialMT-12" transform="translate(2039.546875 0)"/>
     <use xlink:href="#ArialMT-3" transform="translate(2067.328125 0)"/>
     <use xlink:href="#ArialMT-24" transform="translate(2089.59375 0)"/>
     <use xlink:href="#ArialMT-30" transform="translate(2156.296875 0)"/>
     <use xlink:href="#ArialMT-2c" transform="translate(2239.59375 0)"/>
     <use xlink:href="#ArialMT-c" transform="translate(2267.375 0)"/>
    </g>
   </g>
   <g id="legend_1">
    <g id="patch_8">
     <path d="M 51.513457 63.256445 
L 106.269395 63.256445 
Q 108.469395 63.256445 108.469395 61.056445 
L 108.469395 30.509961 
Q 108.469395 28.309961 106.269395 28.309961 
L 51.513457 28.309961 
Q 49.313457 28.309961 49.313457 30.509961 
L 49.313457 61.056445 
Q 49.313457 63.256445 51.513457 63.256445 
z
" style="fill: #ffffff; opacity: 0.8; stroke: #cccccc; stroke-linejoin: miter"/>
    </g>
    <g id="line2d_18">
     <path d="M 53.713457 36.868262 
L 59.213457 36.868262 
L 59.213457 36.868262 
L 70.213457 36.868262 
L 70.213457 36.868262 
L 75.713457 36.868262 
" style="fill: none; stroke: #3182bd; stroke-width: 1.5; stroke-linecap: round"/>
     <g>
      <use xlink:href="#mbc813db585" x="64.713457" y="36.868262" style="fill: #3182bd; stroke: #3182bd"/>
     </g>
    </g>
    <g id="text_19">
     <!-- ARI -->
     <g style="fill: #262626" transform="translate(84.513457 40.718262) scale(0.11 -0.11)">
      <use xlink:href="#ArialMT-24"/>
      <use xlink:href="#ArialMT-35" transform="translate(66.703125 0)"/>
      <use xlink:href="#ArialMT-2c" transform="translate(138.921875 0)"/>
     </g>
    </g>
    <g id="line2d_19">
     <path d="M 53.713457 52.691504 
L 59.213457 52.691504 
L 59.213457 52.691504 
L 70.213457 52.691504 
L 70.213457 52.691504 
L 75.713457 52.691504 
" style="fill: none; stroke: #e6550d; stroke-width: 1.5; stroke-linecap: round"/>
     <g>
      <use xlink:href="#me09d24064c" x="64.713457" y="52.691504" style="fill: #e6550d; stroke: #e6550d; stroke-linejoin: miter"/>
     </g>
    </g>
    <g id="text_20">
     <!-- AMI -->
     <g style="fill: #262626" transform="translate(84.513457 56.541504) scale(0.11 -0.11)">
      <use xlink:href="#ArialMT-24"/>
      <use xlink:href="#ArialMT-30" transform="translate(66.703125 0)"/>
      <use xlink:href="#ArialMT-2c" transform="translate(150 0)"/>
     </g>
    </g>
   </g>
  </g>
 </g>
 <defs>
  <clipPath id="pfd0c0ddcca">
   <rect x="43.813457" y="22.809961" width="502.2" height="249.48"/>
  </clipPath>
 </defs>
</svg>
